<svg width="200" height="30" viewBox="0 0 200 30" fill="none" xmlns="http://www.w3.org/2000/svg">
<path d="M200 0H0V30H200V0Z" fill="#010718" fill-opacity="0.88"/>
<path d="M16.3999 28.8C24.6842 28.8 31.3999 22.532 31.3999 14.8C31.3999 7.068 24.6842 0.799988 16.3999 0.799988C8.11563 0.799988 1.3999 7.068 1.3999 14.8C1.3999 22.532 8.11563 28.8 16.3999 28.8Z" fill="#18A0FB"/>
<path d="M50.3272 21.8571H38.6107L36.3756 27H30.3911L41.639 3H47.4071L58.691 27H52.5624L50.3272 21.8571ZM48.4886 17.64L44.487 8.45143L40.4854 17.64H48.4886ZM70.5021 17.5714L67.1133 20.9314V27H61.3091V3H67.1133V14.2114L78.2891 3H84.7782L74.3235 13.6971L85.3911 27H78.5775L70.5021 17.5714Z" fill="#18A0FB"/>
<path d="M108.281 14.5359C109.839 14.9558 111.059 15.663 111.942 16.6575C112.825 17.6298 113.266 18.8343 113.266 20.2707C113.266 22.3039 112.331 23.8729 110.462 24.9779C108.618 26.0608 105.918 26.6022 102.36 26.6022H88.2607V3.39779H101.581C104.905 3.39779 107.45 3.93923 109.215 5.0221C111.007 6.10497 111.903 7.57459 111.903 9.43094C111.903 10.558 111.578 11.5635 110.929 12.4475C110.306 13.3315 109.423 14.0276 108.281 14.5359ZM94.5315 7.44199V12.9116H100.802C102.36 12.9116 103.542 12.6796 104.347 12.2155C105.152 11.7514 105.554 11.0663 105.554 10.1602C105.554 9.25414 105.152 8.58011 104.347 8.13812C103.542 7.67403 102.36 7.44199 100.802 7.44199H94.5315ZM101.893 22.558C103.555 22.558 104.801 22.326 105.632 21.8619C106.489 21.3978 106.917 20.6796 106.917 19.7072C106.917 17.7845 105.243 16.8232 101.893 16.8232H94.5315V22.558H101.893ZM118.043 3.39779H124.353V22.2265H138.024V26.6022H118.043V3.39779ZM154.297 27C151.466 27 148.909 26.4807 146.624 25.442C144.365 24.4033 142.586 22.9779 141.288 21.1657C140.015 19.3315 139.379 17.2762 139.379 15C139.379 12.7238 140.015 10.6796 141.288 8.8674C142.586 7.03315 144.365 5.59669 146.624 4.55801C148.909 3.51934 151.466 3 154.297 3C157.127 3 159.672 3.51934 161.931 4.55801C164.19 5.59669 165.968 7.03315 167.267 8.8674C168.565 10.6796 169.214 12.7238 169.214 15C169.214 17.2762 168.565 19.3315 167.267 21.1657C165.968 22.9779 164.19 24.4033 161.931 25.442C159.672 26.4807 157.127 27 154.297 27ZM154.297 22.4254C155.907 22.4254 157.361 22.116 158.659 21.4972C159.957 20.8564 160.97 19.9724 161.697 18.8453C162.45 17.7182 162.827 16.4365 162.827 15C162.827 13.5635 162.45 12.2818 161.697 11.1547C160.97 10.0276 159.957 9.1547 158.659 8.53591C157.361 7.89503 155.907 7.57459 154.297 7.57459C152.687 7.57459 151.233 7.89503 149.934 8.53591C148.636 9.1547 147.61 10.0276 146.857 11.1547C146.13 12.2818 145.767 13.5635 145.767 15C145.767 16.4365 146.13 17.7182 146.857 18.8453C147.61 19.9724 148.636 20.8564 149.934 21.4972C151.233 22.116 152.687 22.4254 154.297 22.4254ZM187.004 27C184.226 27 181.707 26.4917 179.448 25.4751C177.215 24.4365 175.45 23.011 174.151 21.1989C172.879 19.3646 172.243 17.2983 172.243 15C172.243 12.7017 172.879 10.6464 174.151 8.83425C175.45 7 177.215 5.57459 179.448 4.55801C181.707 3.51934 184.239 3 187.043 3C189.406 3 191.536 3.35359 193.431 4.06077C195.353 4.76796 196.962 5.78453 198.261 7.1105L194.21 10.2928C192.366 8.48066 190.081 7.57459 187.355 7.57459C185.667 7.57459 184.161 7.89503 182.837 8.53591C181.513 9.1547 180.474 10.0276 179.721 11.1547C178.994 12.2818 178.63 13.5635 178.63 15C178.63 16.4365 178.994 17.7182 179.721 18.8453C180.474 19.9724 181.513 20.8564 182.837 21.4972C184.161 22.116 185.667 22.4254 187.355 22.4254C190.081 22.4254 192.366 21.5083 194.21 19.674L198.261 22.8564C196.962 24.2044 195.353 25.232 193.431 25.9392C191.51 26.6464 189.367 27 187.004 27Z" fill="#F37312"/>
</svg>
