<svg width="500" height="150" viewBox="0 0 500 150" fill="none" xmlns="http://www.w3.org/2000/svg">
<path d="M46 115C68.0914 115 86 97.0914 86 75C86 52.9086 68.0914 35 46 35C23.9086 35 6 52.9086 6 75C6 97.0914 23.9086 115 46 115Z" fill="#18A0FB"/>
<path d="M134.96 96.5H105.71L100.13 110H85.19L113.27 47H127.67L155.84 110H140.54L134.96 96.5ZM130.37 85.43L120.38 61.31L110.39 85.43H130.37ZM185.326 85.25L176.866 94.07V110H162.376V47H176.866V76.43L204.766 47H220.966L194.866 75.08L222.496 110H205.486L185.326 85.25Z" fill="#18A0FB"/>
<path d="M284.73 77.24C288.33 78.38 291.15 80.3 293.19 83C295.23 85.64 296.25 88.91 296.25 92.81C296.25 98.33 294.09 102.59 289.77 105.59C285.51 108.53 279.27 110 271.05 110H238.47V47H269.25C276.93 47 282.81 48.47 286.89 51.41C291.03 54.35 293.1 58.34 293.1 63.38C293.1 66.44 292.35 69.17 290.85 71.57C289.41 73.97 287.37 75.86 284.73 77.24ZM252.96 57.98V72.83H267.45C271.05 72.83 273.78 72.2 275.64 70.94C277.5 69.68 278.43 67.82 278.43 65.36C278.43 62.9 277.5 61.07 275.64 59.87C273.78 58.61 271.05 57.98 267.45 57.98H252.96ZM269.97 99.02C273.81 99.02 276.69 98.39 278.61 97.13C280.59 95.87 281.58 93.92 281.58 91.28C281.58 86.06 277.71 83.45 269.97 83.45H252.96V99.02H269.97ZM307.288 47H321.868V98.12H353.458V110H307.288V47ZM391.06 111.08C384.52 111.08 378.61 109.67 373.33 106.85C368.11 104.03 364 100.16 361 95.24C358.06 90.26 356.59 84.68 356.59 78.5C356.59 72.32 358.06 66.77 361 61.85C364 56.87 368.11 52.97 373.33 50.15C378.61 47.33 384.52 45.92 391.06 45.92C397.6 45.92 403.48 47.33 408.7 50.15C413.92 52.97 418.03 56.87 421.03 61.85C424.03 66.77 425.53 72.32 425.53 78.5C425.53 84.68 424.03 90.26 421.03 95.24C418.03 100.16 413.92 104.03 408.7 106.85C403.48 109.67 397.6 111.08 391.06 111.08ZM391.06 98.66C394.78 98.66 398.14 97.82 401.14 96.14C404.14 94.4 406.48 92 408.16 88.94C409.9 85.88 410.77 82.4 410.77 78.5C410.77 74.6 409.9 71.12 408.16 68.06C406.48 65 404.14 62.63 401.14 60.95C398.14 59.21 394.78 58.34 391.06 58.34C387.34 58.34 383.98 59.21 380.98 60.95C377.98 62.63 375.61 65 373.87 68.06C372.19 71.12 371.35 74.6 371.35 78.5C371.35 82.4 372.19 85.88 373.87 88.94C375.61 92 377.98 94.4 380.98 96.14C383.98 97.82 387.34 98.66 391.06 98.66ZM466.638 111.08C460.218 111.08 454.398 109.7 449.178 106.94C444.018 104.12 439.938 100.25 436.938 95.33C433.998 90.35 432.528 84.74 432.528 78.5C432.528 72.26 433.998 66.68 436.938 61.76C439.938 56.78 444.018 52.91 449.178 50.15C454.398 47.33 460.248 45.92 466.728 45.92C472.188 45.92 477.108 46.88 481.488 48.8C485.928 50.72 489.648 53.48 492.648 57.08L483.288 65.72C479.028 60.8 473.748 58.34 467.448 58.34C463.548 58.34 460.068 59.21 457.008 60.95C453.948 62.63 451.548 65 449.808 68.06C448.128 71.12 447.288 74.6 447.288 78.5C447.288 82.4 448.128 85.88 449.808 88.94C451.548 92 453.948 94.4 457.008 96.14C460.068 97.82 463.548 98.66 467.448 98.66C473.748 98.66 479.028 96.17 483.288 91.19L492.648 99.83C489.648 103.49 485.928 106.28 481.488 108.2C477.048 110.12 472.098 111.08 466.638 111.08Z" fill="#F37312"/>
</svg>
