<svg width="800" height="600" viewBox="0 0 800 600" fill="none" xmlns="http://www.w3.org/2000/svg">
<circle cx="398" cy="300" r="100" fill="url(#paint0_linear)"/>
<path d="M470.5 300C470.5 340.041 438.041 372.5 398 372.5C357.959 372.5 325.5 340.041 325.5 300C325.5 259.959 357.959 227.5 398 227.5C438.041 227.5 470.5 259.959 470.5 300Z" stroke="#236AB9" stroke-width="15"/>
<path d="M362.802 284.52C363.602 284.773 364.228 285.2 364.682 285.8C365.135 286.387 365.362 287.113 365.362 287.98C365.362 289.207 364.882 290.153 363.922 290.82C362.975 291.473 361.588 291.8 359.762 291.8H352.522V277.8H359.362C361.068 277.8 362.375 278.127 363.282 278.78C364.202 279.433 364.662 280.32 364.662 281.44C364.662 282.12 364.495 282.727 364.162 283.26C363.842 283.793 363.388 284.213 362.802 284.52ZM355.742 280.24V283.54H358.962C359.762 283.54 360.368 283.4 360.782 283.12C361.195 282.84 361.402 282.427 361.402 281.88C361.402 281.333 361.195 280.927 360.782 280.66C360.368 280.38 359.762 280.24 358.962 280.24H355.742ZM359.522 289.36C360.375 289.36 361.015 289.22 361.442 288.94C361.882 288.66 362.102 288.227 362.102 287.64C362.102 286.48 361.242 285.9 359.522 285.9H355.742V289.36H359.522ZM378.435 281.04V291.8H375.475V290.52C375.061 290.987 374.568 291.347 373.995 291.6C373.421 291.84 372.801 291.96 372.135 291.96C370.721 291.96 369.601 291.553 368.775 290.74C367.948 289.927 367.535 288.72 367.535 287.12V281.04H370.655V286.66C370.655 288.393 371.381 289.26 372.835 289.26C373.581 289.26 374.181 289.02 374.635 288.54C375.088 288.047 375.315 287.32 375.315 286.36V281.04H378.435ZM384.945 291.96C384.052 291.96 383.178 291.853 382.325 291.64C381.472 291.413 380.792 291.133 380.285 290.8L381.325 288.56C381.805 288.867 382.385 289.12 383.065 289.32C383.745 289.507 384.412 289.6 385.065 289.6C386.385 289.6 387.045 289.273 387.045 288.62C387.045 288.313 386.865 288.093 386.505 287.96C386.145 287.827 385.592 287.713 384.845 287.62C383.965 287.487 383.238 287.333 382.665 287.16C382.092 286.987 381.592 286.68 381.165 286.24C380.752 285.8 380.545 285.173 380.545 284.36C380.545 283.68 380.738 283.08 381.125 282.56C381.525 282.027 382.098 281.613 382.845 281.32C383.605 281.027 384.498 280.88 385.525 280.88C386.285 280.88 387.038 280.967 387.785 281.14C388.545 281.3 389.172 281.527 389.665 281.82L388.625 284.04C387.678 283.507 386.645 283.24 385.525 283.24C384.858 283.24 384.358 283.333 384.025 283.52C383.692 283.707 383.525 283.947 383.525 284.24C383.525 284.573 383.705 284.807 384.065 284.94C384.425 285.073 384.998 285.2 385.785 285.32C386.665 285.467 387.385 285.627 387.945 285.8C388.505 285.96 388.992 286.26 389.405 286.7C389.818 287.14 390.025 287.753 390.025 288.54C390.025 289.207 389.825 289.8 389.425 290.32C389.025 290.84 388.438 291.247 387.665 291.54C386.905 291.82 385.998 291.96 384.945 291.96ZM391.95 281.04H395.07V291.8H391.95V281.04ZM393.51 279.54C392.937 279.54 392.47 279.373 392.11 279.04C391.75 278.707 391.57 278.293 391.57 277.8C391.57 277.307 391.75 276.893 392.11 276.56C392.47 276.227 392.937 276.06 393.51 276.06C394.083 276.06 394.55 276.22 394.91 276.54C395.27 276.86 395.45 277.26 395.45 277.74C395.45 278.26 395.27 278.693 394.91 279.04C394.55 279.373 394.083 279.54 393.51 279.54ZM404.506 280.88C405.839 280.88 406.912 281.28 407.726 282.08C408.552 282.88 408.966 284.067 408.966 285.64V291.8H405.846V286.12C405.846 285.267 405.659 284.633 405.286 284.22C404.912 283.793 404.372 283.58 403.666 283.58C402.879 283.58 402.252 283.827 401.786 284.32C401.319 284.8 401.086 285.52 401.086 286.48V291.8H397.966V281.04H400.946V282.3C401.359 281.847 401.872 281.5 402.486 281.26C403.099 281.007 403.772 280.88 404.506 280.88ZM422.451 286.46C422.451 286.5 422.431 286.78 422.391 287.3H414.251C414.398 287.967 414.744 288.493 415.291 288.88C415.838 289.267 416.518 289.46 417.331 289.46C417.891 289.46 418.384 289.38 418.811 289.22C419.251 289.047 419.658 288.78 420.031 288.42L421.691 290.22C420.678 291.38 419.198 291.96 417.251 291.96C416.038 291.96 414.964 291.727 414.031 291.26C413.098 290.78 412.378 290.12 411.871 289.28C411.364 288.44 411.111 287.487 411.111 286.42C411.111 285.367 411.358 284.42 411.851 283.58C412.358 282.727 413.044 282.067 413.911 281.6C414.791 281.12 415.771 280.88 416.851 280.88C417.904 280.88 418.858 281.107 419.711 281.56C420.564 282.013 421.231 282.667 421.711 283.52C422.204 284.36 422.451 285.34 422.451 286.46ZM416.871 283.24C416.164 283.24 415.571 283.44 415.091 283.84C414.611 284.24 414.318 284.787 414.211 285.48H419.511C419.404 284.8 419.111 284.26 418.631 283.86C418.151 283.447 417.564 283.24 416.871 283.24ZM428.148 291.96C427.255 291.96 426.382 291.853 425.528 291.64C424.675 291.413 423.995 291.133 423.488 290.8L424.528 288.56C425.008 288.867 425.588 289.12 426.268 289.32C426.948 289.507 427.615 289.6 428.268 289.6C429.588 289.6 430.248 289.273 430.248 288.62C430.248 288.313 430.068 288.093 429.708 287.96C429.348 287.827 428.795 287.713 428.048 287.62C427.168 287.487 426.442 287.333 425.868 287.16C425.295 286.987 424.795 286.68 424.368 286.24C423.955 285.8 423.748 285.173 423.748 284.36C423.748 283.68 423.942 283.08 424.328 282.56C424.728 282.027 425.302 281.613 426.048 281.32C426.808 281.027 427.702 280.88 428.728 280.88C429.488 280.88 430.242 280.967 430.988 281.14C431.748 281.3 432.375 281.527 432.868 281.82L431.828 284.04C430.882 283.507 429.848 283.24 428.728 283.24C428.062 283.24 427.562 283.333 427.228 283.52C426.895 283.707 426.728 283.947 426.728 284.24C426.728 284.573 426.908 284.807 427.268 284.94C427.628 285.073 428.202 285.2 428.988 285.32C429.868 285.467 430.588 285.627 431.148 285.8C431.708 285.96 432.195 286.26 432.608 286.7C433.022 287.14 433.228 287.753 433.228 288.54C433.228 289.207 433.028 289.8 432.628 290.32C432.228 290.84 431.642 291.247 430.868 291.54C430.108 291.82 429.202 291.96 428.148 291.96ZM438.773 291.96C437.88 291.96 437.007 291.853 436.153 291.64C435.3 291.413 434.62 291.133 434.113 290.8L435.153 288.56C435.633 288.867 436.213 289.12 436.893 289.32C437.573 289.507 438.24 289.6 438.893 289.6C440.213 289.6 440.873 289.273 440.873 288.62C440.873 288.313 440.693 288.093 440.333 287.96C439.973 287.827 439.42 287.713 438.673 287.62C437.793 287.487 437.067 287.333 436.493 287.16C435.92 286.987 435.42 286.68 434.993 286.24C434.58 285.8 434.373 285.173 434.373 284.36C434.373 283.68 434.567 283.08 434.953 282.56C435.353 282.027 435.927 281.613 436.673 281.32C437.433 281.027 438.327 280.88 439.353 280.88C440.113 280.88 440.867 280.967 441.613 281.14C442.373 281.3 443 281.527 443.493 281.82L442.453 284.04C441.507 283.507 440.473 283.24 439.353 283.24C438.687 283.24 438.187 283.333 437.853 283.52C437.52 283.707 437.353 283.947 437.353 284.24C437.353 284.573 437.533 284.807 437.893 284.94C438.253 285.073 438.827 285.2 439.613 285.32C440.493 285.467 441.213 285.627 441.773 285.8C442.333 285.96 442.82 286.26 443.233 286.7C443.647 287.14 443.853 287.753 443.853 288.54C443.853 289.207 443.653 289.8 443.253 290.32C442.853 290.84 442.267 291.247 441.493 291.54C440.733 291.82 439.827 291.96 438.773 291.96ZM360.033 312.8H353.533L352.293 315.8H348.973L355.213 301.8H358.413L364.673 315.8H361.273L360.033 312.8ZM359.013 310.34L356.793 304.98L354.573 310.34H359.013ZM372.445 304.88C373.779 304.88 374.852 305.28 375.665 306.08C376.492 306.88 376.905 308.067 376.905 309.64V315.8H373.785V310.12C373.785 309.267 373.599 308.633 373.225 308.22C372.852 307.793 372.312 307.58 371.605 307.58C370.819 307.58 370.192 307.827 369.725 308.32C369.259 308.8 369.025 309.52 369.025 310.48V315.8H365.905V305.04H368.885V306.3C369.299 305.847 369.812 305.5 370.425 305.26C371.039 305.007 371.712 304.88 372.445 304.88ZM384.073 304.88C385.74 304.88 387.02 305.28 387.913 306.08C388.807 306.867 389.253 308.06 389.253 309.66V315.8H386.333V314.46C385.747 315.46 384.653 315.96 383.053 315.96C382.227 315.96 381.507 315.82 380.893 315.54C380.293 315.26 379.833 314.873 379.513 314.38C379.193 313.887 379.033 313.327 379.033 312.7C379.033 311.7 379.407 310.913 380.153 310.34C380.913 309.767 382.08 309.48 383.653 309.48H386.133C386.133 308.8 385.927 308.28 385.513 307.92C385.1 307.547 384.48 307.36 383.653 307.36C383.08 307.36 382.513 307.453 381.953 307.64C381.407 307.813 380.94 308.053 380.553 308.36L379.433 306.18C380.02 305.767 380.72 305.447 381.533 305.22C382.36 304.993 383.207 304.88 384.073 304.88ZM383.833 313.86C384.367 313.86 384.84 313.74 385.253 313.5C385.667 313.247 385.96 312.88 386.133 312.4V311.3H383.993C382.713 311.3 382.073 311.72 382.073 312.56C382.073 312.96 382.227 313.28 382.533 313.52C382.853 313.747 383.287 313.86 383.833 313.86ZM392.077 300.96H395.197V315.8H392.077V300.96ZM408.773 305.04L403.913 316.46C403.419 317.7 402.806 318.573 402.073 319.08C401.353 319.587 400.479 319.84 399.453 319.84C398.893 319.84 398.339 319.753 397.793 319.58C397.246 319.407 396.799 319.167 396.453 318.86L397.593 316.64C397.833 316.853 398.106 317.02 398.413 317.14C398.733 317.26 399.046 317.32 399.353 317.32C399.779 317.32 400.126 317.213 400.393 317C400.659 316.8 400.899 316.46 401.113 315.98L401.153 315.88L396.493 305.04H399.713L402.733 312.34L405.773 305.04H408.773ZM417.279 315.28C416.972 315.507 416.592 315.68 416.139 315.8C415.699 315.907 415.232 315.96 414.739 315.96C413.459 315.96 412.465 315.633 411.759 314.98C411.065 314.327 410.719 313.367 410.719 312.1V307.68H409.059V305.28H410.719V302.66H413.839V305.28H416.519V307.68H413.839V312.06C413.839 312.513 413.952 312.867 414.179 313.12C414.419 313.36 414.752 313.48 415.179 313.48C415.672 313.48 416.092 313.347 416.439 313.08L417.279 315.28ZM419.03 305.04H422.15V315.8H419.03V305.04ZM420.59 303.54C420.017 303.54 419.55 303.373 419.19 303.04C418.83 302.707 418.65 302.293 418.65 301.8C418.65 301.307 418.83 300.893 419.19 300.56C419.55 300.227 420.017 300.06 420.59 300.06C421.164 300.06 421.63 300.22 421.99 300.54C422.35 300.86 422.53 301.26 422.53 301.74C422.53 302.26 422.35 302.693 421.99 303.04C421.63 303.373 421.164 303.54 420.59 303.54ZM430.246 315.96C429.099 315.96 428.066 315.727 427.146 315.26C426.239 314.78 425.526 314.12 425.006 313.28C424.499 312.44 424.246 311.487 424.246 310.42C424.246 309.353 424.499 308.4 425.006 307.56C425.526 306.72 426.239 306.067 427.146 305.6C428.066 305.12 429.099 304.88 430.246 304.88C431.379 304.88 432.366 305.12 433.206 305.6C434.059 306.067 434.679 306.74 435.066 307.62L432.646 308.92C432.086 307.933 431.279 307.44 430.226 307.44C429.413 307.44 428.739 307.707 428.206 308.24C427.673 308.773 427.406 309.5 427.406 310.42C427.406 311.34 427.673 312.067 428.206 312.6C428.739 313.133 429.413 313.4 430.226 313.4C431.293 313.4 432.099 312.907 432.646 311.92L435.066 313.24C434.679 314.093 434.059 314.76 433.206 315.24C432.366 315.72 431.379 315.96 430.246 315.96ZM440.482 315.96C439.589 315.96 438.716 315.853 437.862 315.64C437.009 315.413 436.329 315.133 435.822 314.8L436.862 312.56C437.342 312.867 437.922 313.12 438.602 313.32C439.282 313.507 439.949 313.6 440.602 313.6C441.922 313.6 442.582 313.273 442.582 312.62C442.582 312.313 442.402 312.093 442.042 311.96C441.682 311.827 441.129 311.713 440.382 311.62C439.502 311.487 438.776 311.333 438.202 311.16C437.629 310.987 437.129 310.68 436.702 310.24C436.289 309.8 436.082 309.173 436.082 308.36C436.082 307.68 436.276 307.08 436.662 306.56C437.062 306.027 437.636 305.613 438.382 305.32C439.142 305.027 440.036 304.88 441.062 304.88C441.822 304.88 442.576 304.967 443.322 305.14C444.082 305.3 444.709 305.527 445.202 305.82L444.162 308.04C443.216 307.507 442.182 307.24 441.062 307.24C440.396 307.24 439.896 307.333 439.562 307.52C439.229 307.707 439.062 307.947 439.062 308.24C439.062 308.573 439.242 308.807 439.602 308.94C439.962 309.073 440.536 309.2 441.322 309.32C442.202 309.467 442.922 309.627 443.482 309.8C444.042 309.96 444.529 310.26 444.942 310.7C445.356 311.14 445.562 311.753 445.562 312.54C445.562 313.207 445.362 313.8 444.962 314.32C444.562 314.84 443.976 315.247 443.202 315.54C442.442 315.82 441.536 315.96 440.482 315.96Z" fill="#236AB9"/>
<circle cx="225" cy="200" r="100" fill="url(#paint1_linear)"/>
<path d="M297.5 200C297.5 240.041 265.041 272.5 225 272.5C184.959 272.5 152.5 240.041 152.5 200C152.5 159.959 184.959 127.5 225 127.5C265.041 127.5 297.5 159.959 297.5 200Z" stroke="#4AACED" stroke-width="15"/>
<path d="M194.146 191.8L194.126 183.4L190.006 190.32H188.546L184.446 183.58V191.8H181.406V177.8H184.086L189.326 186.5L194.486 177.8H197.146L197.186 191.8H194.146ZM204.628 180.88C206.295 180.88 207.575 181.28 208.468 182.08C209.361 182.867 209.808 184.06 209.808 185.66V191.8H206.888V190.46C206.301 191.46 205.208 191.96 203.608 191.96C202.781 191.96 202.061 191.82 201.448 191.54C200.848 191.26 200.388 190.873 200.068 190.38C199.748 189.887 199.588 189.327 199.588 188.7C199.588 187.7 199.961 186.913 200.708 186.34C201.468 185.767 202.635 185.48 204.208 185.48H206.688C206.688 184.8 206.481 184.28 206.068 183.92C205.655 183.547 205.035 183.36 204.208 183.36C203.635 183.36 203.068 183.453 202.508 183.64C201.961 183.813 201.495 184.053 201.108 184.36L199.988 182.18C200.575 181.767 201.275 181.447 202.088 181.22C202.915 180.993 203.761 180.88 204.628 180.88ZM204.388 189.86C204.921 189.86 205.395 189.74 205.808 189.5C206.221 189.247 206.515 188.88 206.688 188.4V187.3H204.548C203.268 187.3 202.628 187.72 202.628 188.56C202.628 188.96 202.781 189.28 203.088 189.52C203.408 189.747 203.841 189.86 204.388 189.86ZM217.949 191.96C216.802 191.96 215.769 191.727 214.849 191.26C213.942 190.78 213.229 190.12 212.709 189.28C212.202 188.44 211.949 187.487 211.949 186.42C211.949 185.353 212.202 184.4 212.709 183.56C213.229 182.72 213.942 182.067 214.849 181.6C215.769 181.12 216.802 180.88 217.949 180.88C219.082 180.88 220.069 181.12 220.909 181.6C221.762 182.067 222.382 182.74 222.769 183.62L220.349 184.92C219.789 183.933 218.982 183.44 217.929 183.44C217.116 183.44 216.442 183.707 215.909 184.24C215.376 184.773 215.109 185.5 215.109 186.42C215.109 187.34 215.376 188.067 215.909 188.6C216.442 189.133 217.116 189.4 217.929 189.4C218.996 189.4 219.802 188.907 220.349 187.92L222.769 189.24C222.382 190.093 221.762 190.76 220.909 191.24C220.069 191.72 219.082 191.96 217.949 191.96ZM231.027 180.88C232.361 180.88 233.434 181.28 234.247 182.08C235.074 182.88 235.487 184.067 235.487 185.64V191.8H232.367V186.12C232.367 185.267 232.181 184.633 231.807 184.22C231.434 183.793 230.894 183.58 230.187 183.58C229.401 183.58 228.774 183.827 228.307 184.32C227.841 184.8 227.607 185.52 227.607 186.48V191.8H224.487V176.96H227.607V182.16C228.021 181.747 228.521 181.433 229.107 181.22C229.694 180.993 230.334 180.88 231.027 180.88ZM238.315 181.04H241.435V191.8H238.315V181.04ZM239.875 179.54C239.302 179.54 238.835 179.373 238.475 179.04C238.115 178.707 237.935 178.293 237.935 177.8C237.935 177.307 238.115 176.893 238.475 176.56C238.835 176.227 239.302 176.06 239.875 176.06C240.449 176.06 240.915 176.22 241.275 176.54C241.635 176.86 241.815 177.26 241.815 177.74C241.815 178.26 241.635 178.693 241.275 179.04C240.915 179.373 240.449 179.54 239.875 179.54ZM250.871 180.88C252.204 180.88 253.278 181.28 254.091 182.08C254.918 182.88 255.331 184.067 255.331 185.64V191.8H252.211V186.12C252.211 185.267 252.024 184.633 251.651 184.22C251.278 183.793 250.738 183.58 250.031 183.58C249.244 183.58 248.618 183.827 248.151 184.32C247.684 184.8 247.451 185.52 247.451 186.48V191.8H244.331V181.04H247.311V182.3C247.724 181.847 248.238 181.5 248.851 181.26C249.464 181.007 250.138 180.88 250.871 180.88ZM268.816 186.46C268.816 186.5 268.796 186.78 268.756 187.3H260.616C260.763 187.967 261.11 188.493 261.656 188.88C262.203 189.267 262.883 189.46 263.696 189.46C264.256 189.46 264.75 189.38 265.176 189.22C265.616 189.047 266.023 188.78 266.396 188.42L268.056 190.22C267.043 191.38 265.563 191.96 263.616 191.96C262.403 191.96 261.33 191.727 260.396 191.26C259.463 190.78 258.743 190.12 258.236 189.28C257.73 188.44 257.476 187.487 257.476 186.42C257.476 185.367 257.723 184.42 258.216 183.58C258.723 182.727 259.41 182.067 260.276 181.6C261.156 181.12 262.136 180.88 263.216 180.88C264.27 180.88 265.223 181.107 266.076 181.56C266.93 182.013 267.596 182.667 268.076 183.52C268.57 184.36 268.816 185.34 268.816 186.46ZM263.236 183.24C262.53 183.24 261.936 183.44 261.456 183.84C260.976 184.24 260.683 184.787 260.576 185.48H265.876C265.77 184.8 265.476 184.26 264.996 183.86C264.516 183.447 263.93 183.24 263.236 183.24ZM179.766 201.8H183.006V213.16H190.026V215.8H179.766V201.8ZM202.078 210.46C202.078 210.5 202.058 210.78 202.018 211.3H193.878C194.025 211.967 194.371 212.493 194.918 212.88C195.465 213.267 196.145 213.46 196.958 213.46C197.518 213.46 198.011 213.38 198.438 213.22C198.878 213.047 199.285 212.78 199.658 212.42L201.318 214.22C200.305 215.38 198.825 215.96 196.878 215.96C195.665 215.96 194.591 215.727 193.658 215.26C192.725 214.78 192.005 214.12 191.498 213.28C190.991 212.44 190.738 211.487 190.738 210.42C190.738 209.367 190.985 208.42 191.478 207.58C191.985 206.727 192.671 206.067 193.538 205.6C194.418 205.12 195.398 204.88 196.478 204.88C197.531 204.88 198.485 205.107 199.338 205.56C200.191 206.013 200.858 206.667 201.338 207.52C201.831 208.36 202.078 209.34 202.078 210.46ZM196.498 207.24C195.791 207.24 195.198 207.44 194.718 207.84C194.238 208.24 193.945 208.787 193.838 209.48H199.138C199.031 208.8 198.738 208.26 198.258 207.86C197.778 207.447 197.191 207.24 196.498 207.24ZM208.202 204.88C209.869 204.88 211.149 205.28 212.042 206.08C212.936 206.867 213.382 208.06 213.382 209.66V215.8H210.462V214.46C209.876 215.46 208.782 215.96 207.182 215.96C206.356 215.96 205.636 215.82 205.022 215.54C204.422 215.26 203.962 214.873 203.642 214.38C203.322 213.887 203.162 213.327 203.162 212.7C203.162 211.7 203.536 210.913 204.282 210.34C205.042 209.767 206.209 209.48 207.782 209.48H210.262C210.262 208.8 210.056 208.28 209.642 207.92C209.229 207.547 208.609 207.36 207.782 207.36C207.209 207.36 206.642 207.453 206.082 207.64C205.536 207.813 205.069 208.053 204.682 208.36L203.562 206.18C204.149 205.767 204.849 205.447 205.662 205.22C206.489 204.993 207.336 204.88 208.202 204.88ZM207.962 213.86C208.496 213.86 208.969 213.74 209.382 213.5C209.796 213.247 210.089 212.88 210.262 212.4V211.3H208.122C206.842 211.3 206.202 211.72 206.202 212.56C206.202 212.96 206.356 213.28 206.662 213.52C206.982 213.747 207.416 213.86 207.962 213.86ZM219.186 206.46C219.559 205.94 220.059 205.547 220.686 205.28C221.326 205.013 222.059 204.88 222.886 204.88V207.76C222.539 207.733 222.306 207.72 222.186 207.72C221.293 207.72 220.593 207.973 220.086 208.48C219.579 208.973 219.326 209.72 219.326 210.72V215.8H216.206V205.04H219.186V206.46ZM231.281 204.88C232.614 204.88 233.688 205.28 234.501 206.08C235.328 206.88 235.741 208.067 235.741 209.64V215.8H232.621V210.12C232.621 209.267 232.434 208.633 232.061 208.22C231.688 207.793 231.148 207.58 230.441 207.58C229.654 207.58 229.028 207.827 228.561 208.32C228.094 208.8 227.861 209.52 227.861 210.48V215.8H224.741V205.04H227.721V206.3C228.134 205.847 228.648 205.5 229.261 205.26C229.874 205.007 230.548 204.88 231.281 204.88ZM238.569 205.04H241.689V215.8H238.569V205.04ZM240.129 203.54C239.556 203.54 239.089 203.373 238.729 203.04C238.369 202.707 238.189 202.293 238.189 201.8C238.189 201.307 238.369 200.893 238.729 200.56C239.089 200.227 239.556 200.06 240.129 200.06C240.703 200.06 241.169 200.22 241.529 200.54C241.889 200.86 242.069 201.26 242.069 201.74C242.069 202.26 241.889 202.693 241.529 203.04C241.169 203.373 240.703 203.54 240.129 203.54ZM251.125 204.88C252.458 204.88 253.532 205.28 254.345 206.08C255.172 206.88 255.585 208.067 255.585 209.64V215.8H252.465V210.12C252.465 209.267 252.278 208.633 251.905 208.22C251.532 207.793 250.992 207.58 250.285 207.58C249.498 207.58 248.872 207.827 248.405 208.32C247.938 208.8 247.705 209.52 247.705 210.48V215.8H244.585V205.04H247.565V206.3C247.978 205.847 248.492 205.5 249.105 205.26C249.718 205.007 250.392 204.88 251.125 204.88ZM269.63 205.04V214C269.63 215.973 269.117 217.44 268.09 218.4C267.064 219.36 265.564 219.84 263.59 219.84C262.55 219.84 261.564 219.713 260.63 219.46C259.697 219.207 258.924 218.84 258.31 218.36L259.55 216.12C260.004 216.493 260.577 216.787 261.27 217C261.964 217.227 262.657 217.34 263.35 217.34C264.43 217.34 265.224 217.093 265.73 216.6C266.25 216.12 266.51 215.387 266.51 214.4V213.94C265.697 214.833 264.564 215.28 263.11 215.28C262.124 215.28 261.217 215.067 260.39 214.64C259.577 214.2 258.93 213.587 258.45 212.8C257.97 212.013 257.73 211.107 257.73 210.08C257.73 209.053 257.97 208.147 258.45 207.36C258.93 206.573 259.577 205.967 260.39 205.54C261.217 205.1 262.124 204.88 263.11 204.88C264.67 204.88 265.857 205.393 266.67 206.42V205.04H269.63ZM263.73 212.72C264.557 212.72 265.23 212.48 265.75 212C266.284 211.507 266.55 210.867 266.55 210.08C266.55 209.293 266.284 208.66 265.75 208.18C265.23 207.687 264.557 207.44 263.73 207.44C262.904 207.44 262.224 207.687 261.69 208.18C261.157 208.66 260.89 209.293 260.89 210.08C260.89 210.867 261.157 211.507 261.69 212C262.224 212.48 262.904 212.72 263.73 212.72Z" fill="#4299D3"/>
<circle cx="399" cy="100" r="100" fill="url(#paint2_linear)"/>
<path d="M471.5 100C471.5 140.041 439.041 172.5 399 172.5C358.959 172.5 326.5 140.041 326.5 100C326.5 59.9594 358.959 27.5 399 27.5C439.041 27.5 471.5 59.9594 471.5 100Z" stroke="#E08744" stroke-width="15"/>
<path d="M375.309 77.8H381.669C383.189 77.8 384.529 78.0934 385.689 78.68C386.862 79.2534 387.769 80.0667 388.409 81.12C389.062 82.1734 389.389 83.4 389.389 84.8C389.389 86.2 389.062 87.4267 388.409 88.48C387.769 89.5334 386.862 90.3534 385.689 90.94C384.529 91.5134 383.189 91.8 381.669 91.8H375.309V77.8ZM381.509 89.14C382.909 89.14 384.022 88.7534 384.849 87.98C385.689 87.1934 386.109 86.1334 386.109 84.8C386.109 83.4667 385.689 82.4134 384.849 81.64C384.022 80.8534 382.909 80.46 381.509 80.46H378.549V89.14H381.509ZM395.952 80.88C397.619 80.88 398.899 81.28 399.792 82.08C400.686 82.8667 401.132 84.06 401.132 85.66V91.8H398.212V90.46C397.626 91.46 396.532 91.96 394.932 91.96C394.106 91.96 393.386 91.82 392.772 91.54C392.172 91.26 391.712 90.8734 391.392 90.38C391.072 89.8867 390.912 89.3267 390.912 88.7C390.912 87.7 391.286 86.9134 392.032 86.34C392.792 85.7667 393.959 85.48 395.532 85.48H398.012C398.012 84.8 397.806 84.28 397.392 83.92C396.979 83.5467 396.359 83.36 395.532 83.36C394.959 83.36 394.392 83.4534 393.832 83.64C393.286 83.8134 392.819 84.0534 392.432 84.36L391.312 82.18C391.899 81.7667 392.599 81.4467 393.412 81.22C394.239 80.9934 395.086 80.88 395.952 80.88ZM395.712 89.86C396.246 89.86 396.719 89.74 397.132 89.5C397.546 89.2467 397.839 88.88 398.012 88.4V87.3H395.872C394.592 87.3 393.952 87.72 393.952 88.56C393.952 88.96 394.106 89.28 394.412 89.52C394.732 89.7467 395.166 89.86 395.712 89.86ZM410.896 91.28C410.589 91.5067 410.209 91.68 409.756 91.8C409.316 91.9067 408.849 91.96 408.356 91.96C407.076 91.96 406.083 91.6334 405.376 90.98C404.683 90.3267 404.336 89.3667 404.336 88.1V83.68H402.676V81.28H404.336V78.66H407.456V81.28H410.136V83.68H407.456V88.06C407.456 88.5134 407.569 88.8667 407.796 89.12C408.036 89.36 408.369 89.48 408.796 89.48C409.289 89.48 409.709 89.3467 410.056 89.08L410.896 91.28ZM416.987 80.88C418.654 80.88 419.934 81.28 420.827 82.08C421.721 82.8667 422.167 84.06 422.167 85.66V91.8H419.247V90.46C418.661 91.46 417.567 91.96 415.967 91.96C415.141 91.96 414.421 91.82 413.807 91.54C413.207 91.26 412.747 90.8734 412.427 90.38C412.107 89.8867 411.947 89.3267 411.947 88.7C411.947 87.7 412.321 86.9134 413.067 86.34C413.827 85.7667 414.994 85.48 416.567 85.48H419.047C419.047 84.8 418.841 84.28 418.427 83.92C418.014 83.5467 417.394 83.36 416.567 83.36C415.994 83.36 415.427 83.4534 414.867 83.64C414.321 83.8134 413.854 84.0534 413.467 84.36L412.347 82.18C412.934 81.7667 413.634 81.4467 414.447 81.22C415.274 80.9934 416.121 80.88 416.987 80.88ZM416.747 89.86C417.281 89.86 417.754 89.74 418.167 89.5C418.581 89.2467 418.874 88.88 419.047 88.4V87.3H416.907C415.627 87.3 414.987 87.72 414.987 88.56C414.987 88.96 415.141 89.28 415.447 89.52C415.767 89.7467 416.201 89.86 416.747 89.86ZM376.545 115.8L376.525 107.4L372.405 114.32H370.945L366.845 107.58V115.8H363.805V101.8H366.485L371.725 110.5L376.885 101.8H379.545L379.585 115.8H376.545ZM382.686 105.04H385.806V115.8H382.686V105.04ZM384.246 103.54C383.673 103.54 383.206 103.373 382.846 103.04C382.486 102.707 382.306 102.293 382.306 101.8C382.306 101.307 382.486 100.893 382.846 100.56C383.206 100.227 383.673 100.06 384.246 100.06C384.82 100.06 385.286 100.22 385.646 100.54C386.006 100.86 386.186 101.26 386.186 101.74C386.186 102.26 386.006 102.693 385.646 103.04C385.286 103.373 384.82 103.54 384.246 103.54ZM395.242 104.88C396.575 104.88 397.649 105.28 398.462 106.08C399.289 106.88 399.702 108.067 399.702 109.64V115.8H396.582V110.12C396.582 109.267 396.395 108.633 396.022 108.22C395.649 107.793 395.109 107.58 394.402 107.58C393.615 107.58 392.989 107.827 392.522 108.32C392.055 108.8 391.822 109.52 391.822 110.48V115.8H388.702V105.04H391.682V106.3C392.095 105.847 392.609 105.5 393.222 105.26C393.835 105.007 394.509 104.88 395.242 104.88ZM402.53 105.04H405.65V115.8H402.53V105.04ZM404.09 103.54C403.517 103.54 403.05 103.373 402.69 103.04C402.33 102.707 402.15 102.293 402.15 101.8C402.15 101.307 402.33 100.893 402.69 100.56C403.05 100.227 403.517 100.06 404.09 100.06C404.664 100.06 405.13 100.22 405.49 100.54C405.85 100.86 406.03 101.26 406.03 101.74C406.03 102.26 405.85 102.693 405.49 103.04C405.13 103.373 404.664 103.54 404.09 103.54ZM415.086 104.88C416.419 104.88 417.493 105.28 418.306 106.08C419.133 106.88 419.546 108.067 419.546 109.64V115.8H416.426V110.12C416.426 109.267 416.239 108.633 415.866 108.22C415.493 107.793 414.953 107.58 414.246 107.58C413.459 107.58 412.833 107.827 412.366 108.32C411.899 108.8 411.666 109.52 411.666 110.48V115.8H408.546V105.04H411.526V106.3C411.939 105.847 412.453 105.5 413.066 105.26C413.679 105.007 414.353 104.88 415.086 104.88ZM433.591 105.04V114C433.591 115.973 433.078 117.44 432.051 118.4C431.024 119.36 429.524 119.84 427.551 119.84C426.511 119.84 425.524 119.713 424.591 119.46C423.658 119.207 422.884 118.84 422.271 118.36L423.511 116.12C423.964 116.493 424.538 116.787 425.231 117C425.924 117.227 426.618 117.34 427.311 117.34C428.391 117.34 429.184 117.093 429.691 116.6C430.211 116.12 430.471 115.387 430.471 114.4V113.94C429.658 114.833 428.524 115.28 427.071 115.28C426.084 115.28 425.178 115.067 424.351 114.64C423.538 114.2 422.891 113.587 422.411 112.8C421.931 112.013 421.691 111.107 421.691 110.08C421.691 109.053 421.931 108.147 422.411 107.36C422.891 106.573 423.538 105.967 424.351 105.54C425.178 105.1 426.084 104.88 427.071 104.88C428.631 104.88 429.818 105.393 430.631 106.42V105.04H433.591ZM427.691 112.72C428.518 112.72 429.191 112.48 429.711 112C430.244 111.507 430.511 110.867 430.511 110.08C430.511 109.293 430.244 108.66 429.711 108.18C429.191 107.687 428.518 107.44 427.691 107.44C426.864 107.44 426.184 107.687 425.651 108.18C425.118 108.66 424.851 109.293 424.851 110.08C424.851 110.867 425.118 111.507 425.651 112C426.184 112.48 426.864 112.72 427.691 112.72Z" fill="#E08744"/>
<circle cx="572" cy="202" r="100" fill="url(#paint3_linear)"/>
<path d="M644.5 202C644.5 242.041 612.041 274.5 572 274.5C531.959 274.5 499.5 242.041 499.5 202C499.5 161.959 531.959 129.5 572 129.5C612.041 129.5 644.5 161.959 644.5 202Z" stroke="#46D2CE" stroke-width="15"/>
<path d="M511.756 179.8H518.116C519.636 179.8 520.976 180.093 522.136 180.68C523.309 181.253 524.216 182.067 524.856 183.12C525.509 184.173 525.836 185.4 525.836 186.8C525.836 188.2 525.509 189.427 524.856 190.48C524.216 191.533 523.309 192.353 522.136 192.94C520.976 193.513 519.636 193.8 518.116 193.8H511.756V179.8ZM517.956 191.14C519.356 191.14 520.469 190.753 521.296 189.98C522.136 189.193 522.556 188.133 522.556 186.8C522.556 185.467 522.136 184.413 521.296 183.64C520.469 182.853 519.356 182.46 517.956 182.46H514.996V191.14H517.956ZM528.06 183.04H531.18V193.8H528.06V183.04ZM529.62 181.54C529.046 181.54 528.58 181.373 528.22 181.04C527.86 180.707 527.68 180.293 527.68 179.8C527.68 179.307 527.86 178.893 528.22 178.56C528.58 178.227 529.046 178.06 529.62 178.06C530.193 178.06 530.66 178.22 531.02 178.54C531.38 178.86 531.56 179.26 531.56 179.74C531.56 180.26 531.38 180.693 531.02 181.04C530.66 181.373 530.193 181.54 529.62 181.54ZM537.695 193.96C536.802 193.96 535.928 193.853 535.075 193.64C534.222 193.413 533.542 193.133 533.035 192.8L534.075 190.56C534.555 190.867 535.135 191.12 535.815 191.32C536.495 191.507 537.162 191.6 537.815 191.6C539.135 191.6 539.795 191.273 539.795 190.62C539.795 190.313 539.615 190.093 539.255 189.96C538.895 189.827 538.342 189.713 537.595 189.62C536.715 189.487 535.988 189.333 535.415 189.16C534.842 188.987 534.342 188.68 533.915 188.24C533.502 187.8 533.295 187.173 533.295 186.36C533.295 185.68 533.488 185.08 533.875 184.56C534.275 184.027 534.848 183.613 535.595 183.32C536.355 183.027 537.248 182.88 538.275 182.88C539.035 182.88 539.788 182.967 540.535 183.14C541.295 183.3 541.922 183.527 542.415 183.82L541.375 186.04C540.428 185.507 539.395 185.24 538.275 185.24C537.608 185.24 537.108 185.333 536.775 185.52C536.442 185.707 536.275 185.947 536.275 186.24C536.275 186.573 536.455 186.807 536.815 186.94C537.175 187.073 537.748 187.2 538.535 187.32C539.415 187.467 540.135 187.627 540.695 187.8C541.255 187.96 541.742 188.26 542.155 188.7C542.568 189.14 542.775 189.753 542.775 190.54C542.775 191.207 542.575 191.8 542.175 192.32C541.775 192.84 541.188 193.247 540.415 193.54C539.655 193.82 538.748 193.96 537.695 193.96ZM549.9 193.96C548.753 193.96 547.72 193.727 546.8 193.26C545.893 192.78 545.18 192.12 544.66 191.28C544.153 190.44 543.9 189.487 543.9 188.42C543.9 187.353 544.153 186.4 544.66 185.56C545.18 184.72 545.893 184.067 546.8 183.6C547.72 183.12 548.753 182.88 549.9 182.88C551.033 182.88 552.02 183.12 552.86 183.6C553.713 184.067 554.333 184.74 554.72 185.62L552.3 186.92C551.74 185.933 550.933 185.44 549.88 185.44C549.067 185.44 548.393 185.707 547.86 186.24C547.327 186.773 547.06 187.5 547.06 188.42C547.06 189.34 547.327 190.067 547.86 190.6C548.393 191.133 549.067 191.4 549.88 191.4C550.947 191.4 551.753 190.907 552.3 189.92L554.72 191.24C554.333 192.093 553.713 192.76 552.86 193.24C552.02 193.72 551.033 193.96 549.9 193.96ZM561.5 193.96C560.366 193.96 559.346 193.727 558.44 193.26C557.546 192.78 556.846 192.12 556.34 191.28C555.833 190.44 555.58 189.487 555.58 188.42C555.58 187.353 555.833 186.4 556.34 185.56C556.846 184.72 557.546 184.067 558.44 183.6C559.346 183.12 560.366 182.88 561.5 182.88C562.633 182.88 563.646 183.12 564.54 183.6C565.433 184.067 566.133 184.72 566.64 185.56C567.146 186.4 567.4 187.353 567.4 188.42C567.4 189.487 567.146 190.44 566.64 191.28C566.133 192.12 565.433 192.78 564.54 193.26C563.646 193.727 562.633 193.96 561.5 193.96ZM561.5 191.4C562.3 191.4 562.953 191.133 563.46 190.6C563.98 190.053 564.24 189.327 564.24 188.42C564.24 187.513 563.98 186.793 563.46 186.26C562.953 185.713 562.3 185.44 561.5 185.44C560.7 185.44 560.04 185.713 559.52 186.26C559 186.793 558.74 187.513 558.74 188.42C558.74 189.327 559 190.053 559.52 190.6C560.04 191.133 560.7 191.4 561.5 191.4ZM579.872 183.04L575.332 193.8H572.112L567.592 183.04H570.812L573.792 190.36L576.872 183.04H579.872ZM591.392 188.46C591.392 188.5 591.372 188.78 591.332 189.3H583.192C583.339 189.967 583.686 190.493 584.232 190.88C584.779 191.267 585.459 191.46 586.272 191.46C586.832 191.46 587.326 191.38 587.752 191.22C588.192 191.047 588.599 190.78 588.972 190.42L590.632 192.22C589.619 193.38 588.139 193.96 586.192 193.96C584.979 193.96 583.906 193.727 582.972 193.26C582.039 192.78 581.319 192.12 580.812 191.28C580.306 190.44 580.052 189.487 580.052 188.42C580.052 187.367 580.299 186.42 580.792 185.58C581.299 184.727 581.986 184.067 582.852 183.6C583.732 183.12 584.712 182.88 585.792 182.88C586.846 182.88 587.799 183.107 588.652 183.56C589.506 184.013 590.172 184.667 590.652 185.52C591.146 186.36 591.392 187.34 591.392 188.46ZM585.812 185.24C585.106 185.24 584.512 185.44 584.032 185.84C583.552 186.24 583.259 186.787 583.152 187.48H588.452C588.346 186.8 588.052 186.26 587.572 185.86C587.092 185.447 586.506 185.24 585.812 185.24ZM596.45 184.46C596.823 183.94 597.323 183.547 597.95 183.28C598.59 183.013 599.323 182.88 600.15 182.88V185.76C599.803 185.733 599.57 185.72 599.45 185.72C598.556 185.72 597.856 185.973 597.35 186.48C596.843 186.973 596.59 187.72 596.59 188.72V193.8H593.47V183.04H596.45V184.46ZM613.056 183.04L608.196 194.46C607.703 195.7 607.089 196.573 606.356 197.08C605.636 197.587 604.763 197.84 603.736 197.84C603.176 197.84 602.623 197.753 602.076 197.58C601.529 197.407 601.083 197.167 600.736 196.86L601.876 194.64C602.116 194.853 602.389 195.02 602.696 195.14C603.016 195.26 603.329 195.32 603.636 195.32C604.063 195.32 604.409 195.213 604.676 195C604.943 194.8 605.183 194.46 605.396 193.98L605.436 193.88L600.776 183.04H603.996L607.016 190.34L610.056 183.04H613.056ZM630.973 194.04L629.293 192.48C627.96 193.52 626.4 194.04 624.613 194.04C623.6 194.04 622.686 193.88 621.873 193.56C621.06 193.227 620.42 192.767 619.953 192.18C619.5 191.593 619.273 190.933 619.273 190.2C619.273 189.333 619.513 188.573 619.993 187.92C620.486 187.253 621.273 186.62 622.353 186.02C621.846 185.5 621.48 185.007 621.253 184.54C621.026 184.06 620.913 183.567 620.913 183.06C620.913 182.38 621.093 181.78 621.453 181.26C621.813 180.74 622.32 180.34 622.973 180.06C623.64 179.767 624.406 179.62 625.273 179.62C626.486 179.62 627.46 179.913 628.193 180.5C628.926 181.073 629.293 181.853 629.293 182.84C629.293 183.56 629.073 184.2 628.633 184.76C628.206 185.32 627.513 185.86 626.553 186.38L629.113 188.76C629.42 188.12 629.653 187.393 629.813 186.58L632.313 187.36C632.046 188.6 631.62 189.66 631.033 190.54L632.673 192.06L630.973 194.04ZM625.273 181.74C624.806 181.74 624.433 181.86 624.153 182.1C623.886 182.34 623.753 182.647 623.753 183.02C623.753 183.3 623.826 183.567 623.973 183.82C624.12 184.06 624.406 184.387 624.833 184.8C625.513 184.44 625.986 184.12 626.253 183.84C626.52 183.547 626.653 183.233 626.653 182.9C626.653 182.553 626.533 182.273 626.293 182.06C626.053 181.847 625.713 181.74 625.273 181.74ZM624.833 191.6C625.806 191.6 626.68 191.327 627.453 190.78L624.073 187.62C623.446 187.98 623 188.333 622.733 188.68C622.466 189.027 622.333 189.42 622.333 189.86C622.333 190.38 622.56 190.8 623.013 191.12C623.466 191.44 624.073 191.6 624.833 191.6ZM523.817 215.2V217.8H512.977V203.8H523.557V206.4H516.197V209.44H522.697V211.96H516.197V215.2H523.817ZM532.878 217.8L530.518 214.5L528.078 217.8H524.678L528.818 212.38L524.818 207.04H528.318L530.598 210.18L532.938 207.04H536.258L532.258 212.3L536.418 217.8H532.878ZM544.293 206.88C545.293 206.88 546.199 207.113 547.013 207.58C547.839 208.033 548.486 208.68 548.953 209.52C549.419 210.347 549.653 211.313 549.653 212.42C549.653 213.527 549.419 214.5 548.953 215.34C548.486 216.167 547.839 216.813 547.013 217.28C546.199 217.733 545.293 217.96 544.293 217.96C542.919 217.96 541.839 217.527 541.053 216.66V221.68H537.933V207.04H540.913V208.28C541.686 207.347 542.813 206.88 544.293 206.88ZM543.753 215.4C544.553 215.4 545.206 215.133 545.713 214.6C546.233 214.053 546.493 213.327 546.493 212.42C546.493 211.513 546.233 210.793 545.713 210.26C545.206 209.713 544.553 209.44 543.753 209.44C542.953 209.44 542.293 209.713 541.773 210.26C541.266 210.793 541.013 211.513 541.013 212.42C541.013 213.327 541.266 214.053 541.773 214.6C542.293 215.133 542.953 215.4 543.753 215.4ZM551.741 202.96H554.861V217.8H551.741V202.96ZM562.877 217.96C561.743 217.96 560.723 217.727 559.817 217.26C558.923 216.78 558.223 216.12 557.717 215.28C557.21 214.44 556.957 213.487 556.957 212.42C556.957 211.353 557.21 210.4 557.717 209.56C558.223 208.72 558.923 208.067 559.817 207.6C560.723 207.12 561.743 206.88 562.877 206.88C564.01 206.88 565.023 207.12 565.917 207.6C566.81 208.067 567.51 208.72 568.017 209.56C568.523 210.4 568.777 211.353 568.777 212.42C568.777 213.487 568.523 214.44 568.017 215.28C567.51 216.12 566.81 216.78 565.917 217.26C565.023 217.727 564.01 217.96 562.877 217.96ZM562.877 215.4C563.677 215.4 564.33 215.133 564.837 214.6C565.357 214.053 565.617 213.327 565.617 212.42C565.617 211.513 565.357 210.793 564.837 210.26C564.33 209.713 563.677 209.44 562.877 209.44C562.077 209.44 561.417 209.713 560.897 210.26C560.377 210.793 560.117 211.513 560.117 212.42C560.117 213.327 560.377 214.053 560.897 214.6C561.417 215.133 562.077 215.4 562.877 215.4ZM573.842 208.46C574.216 207.94 574.716 207.547 575.342 207.28C575.982 207.013 576.716 206.88 577.542 206.88V209.76C577.196 209.733 576.962 209.72 576.842 209.72C575.949 209.72 575.249 209.973 574.742 210.48C574.236 210.973 573.982 211.72 573.982 212.72V217.8H570.862V207.04H573.842V208.46ZM583.679 206.88C585.345 206.88 586.625 207.28 587.519 208.08C588.412 208.867 588.859 210.06 588.859 211.66V217.8H585.939V216.46C585.352 217.46 584.259 217.96 582.659 217.96C581.832 217.96 581.112 217.82 580.499 217.54C579.899 217.26 579.439 216.873 579.119 216.38C578.799 215.887 578.639 215.327 578.639 214.7C578.639 213.7 579.012 212.913 579.759 212.34C580.519 211.767 581.685 211.48 583.259 211.48H585.739C585.739 210.8 585.532 210.28 585.119 209.92C584.705 209.547 584.085 209.36 583.259 209.36C582.685 209.36 582.119 209.453 581.559 209.64C581.012 209.813 580.545 210.053 580.159 210.36L579.039 208.18C579.625 207.767 580.325 207.447 581.139 207.22C581.965 206.993 582.812 206.88 583.679 206.88ZM583.439 215.86C583.972 215.86 584.445 215.74 584.859 215.5C585.272 215.247 585.565 214.88 585.739 214.4V213.3H583.599C582.319 213.3 581.679 213.72 581.679 214.56C581.679 214.96 581.832 215.28 582.139 215.52C582.459 215.747 582.892 215.86 583.439 215.86ZM598.623 217.28C598.316 217.507 597.936 217.68 597.483 217.8C597.043 217.907 596.576 217.96 596.083 217.96C594.803 217.96 593.809 217.633 593.103 216.98C592.409 216.327 592.063 215.367 592.063 214.1V209.68H590.403V207.28H592.063V204.66H595.183V207.28H597.863V209.68H595.183V214.06C595.183 214.513 595.296 214.867 595.523 215.12C595.763 215.36 596.096 215.48 596.523 215.48C597.016 215.48 597.436 215.347 597.783 215.08L598.623 217.28ZM600.374 207.04H603.494V217.8H600.374V207.04ZM601.934 205.54C601.361 205.54 600.894 205.373 600.534 205.04C600.174 204.707 599.994 204.293 599.994 203.8C599.994 203.307 600.174 202.893 600.534 202.56C600.894 202.227 601.361 202.06 601.934 202.06C602.507 202.06 602.974 202.22 603.334 202.54C603.694 202.86 603.874 203.26 603.874 203.74C603.874 204.26 603.694 204.693 603.334 205.04C602.974 205.373 602.507 205.54 601.934 205.54ZM611.51 217.96C610.376 217.96 609.356 217.727 608.45 217.26C607.556 216.78 606.856 216.12 606.35 215.28C605.843 214.44 605.59 213.487 605.59 212.42C605.59 211.353 605.843 210.4 606.35 209.56C606.856 208.72 607.556 208.067 608.45 207.6C609.356 207.12 610.376 206.88 611.51 206.88C612.643 206.88 613.656 207.12 614.55 207.6C615.443 208.067 616.143 208.72 616.65 209.56C617.156 210.4 617.41 211.353 617.41 212.42C617.41 213.487 617.156 214.44 616.65 215.28C616.143 216.12 615.443 216.78 614.55 217.26C613.656 217.727 612.643 217.96 611.51 217.96ZM611.51 215.4C612.31 215.4 612.963 215.133 613.47 214.6C613.99 214.053 614.25 213.327 614.25 212.42C614.25 211.513 613.99 210.793 613.47 210.26C612.963 209.713 612.31 209.44 611.51 209.44C610.71 209.44 610.05 209.713 609.53 210.26C609.01 210.793 608.75 211.513 608.75 212.42C608.75 213.327 609.01 214.053 609.53 214.6C610.05 215.133 610.71 215.4 611.51 215.4ZM626.035 206.88C627.368 206.88 628.442 207.28 629.255 208.08C630.082 208.88 630.495 210.067 630.495 211.64V217.8H627.375V212.12C627.375 211.267 627.188 210.633 626.815 210.22C626.442 209.793 625.902 209.58 625.195 209.58C624.408 209.58 623.782 209.827 623.315 210.32C622.848 210.8 622.615 211.52 622.615 212.48V217.8H619.495V207.04H622.475V208.3C622.888 207.847 623.402 207.5 624.015 207.26C624.628 207.007 625.302 206.88 626.035 206.88Z" fill="#3EA9A6"/>
<circle cx="574" cy="403" r="100" fill="url(#paint4_linear)"/>
<path d="M646.5 403C646.5 443.041 614.041 475.5 574 475.5C533.959 475.5 501.5 443.041 501.5 403C501.5 362.959 533.959 330.5 574 330.5C614.041 330.5 646.5 362.959 646.5 403Z" stroke="#6A9C0A" stroke-width="15"/>
<path d="M538.802 387.52C539.602 387.773 540.228 388.2 540.682 388.8C541.135 389.387 541.362 390.113 541.362 390.98C541.362 392.207 540.882 393.153 539.922 393.82C538.975 394.473 537.588 394.8 535.762 394.8H528.522V380.8H535.362C537.068 380.8 538.375 381.127 539.282 381.78C540.202 382.433 540.662 383.32 540.662 384.44C540.662 385.12 540.495 385.727 540.162 386.26C539.842 386.793 539.388 387.213 538.802 387.52ZM531.742 383.24V386.54H534.962C535.762 386.54 536.368 386.4 536.782 386.12C537.195 385.84 537.402 385.427 537.402 384.88C537.402 384.333 537.195 383.927 536.782 383.66C536.368 383.38 535.762 383.24 534.962 383.24H531.742ZM535.522 392.36C536.375 392.36 537.015 392.22 537.442 391.94C537.882 391.66 538.102 391.227 538.102 390.64C538.102 389.48 537.242 388.9 535.522 388.9H531.742V392.36H535.522ZM554.435 384.04V394.8H551.475V393.52C551.061 393.987 550.568 394.347 549.995 394.6C549.421 394.84 548.801 394.96 548.135 394.96C546.721 394.96 545.601 394.553 544.775 393.74C543.948 392.927 543.535 391.72 543.535 390.12V384.04H546.655V389.66C546.655 391.393 547.381 392.26 548.835 392.26C549.581 392.26 550.181 392.02 550.635 391.54C551.088 391.047 551.315 390.32 551.315 389.36V384.04H554.435ZM560.945 394.96C560.052 394.96 559.178 394.853 558.325 394.64C557.472 394.413 556.792 394.133 556.285 393.8L557.325 391.56C557.805 391.867 558.385 392.12 559.065 392.32C559.745 392.507 560.412 392.6 561.065 392.6C562.385 392.6 563.045 392.273 563.045 391.62C563.045 391.313 562.865 391.093 562.505 390.96C562.145 390.827 561.592 390.713 560.845 390.62C559.965 390.487 559.238 390.333 558.665 390.16C558.092 389.987 557.592 389.68 557.165 389.24C556.752 388.8 556.545 388.173 556.545 387.36C556.545 386.68 556.738 386.08 557.125 385.56C557.525 385.027 558.098 384.613 558.845 384.32C559.605 384.027 560.498 383.88 561.525 383.88C562.285 383.88 563.038 383.967 563.785 384.14C564.545 384.3 565.172 384.527 565.665 384.82L564.625 387.04C563.678 386.507 562.645 386.24 561.525 386.24C560.858 386.24 560.358 386.333 560.025 386.52C559.692 386.707 559.525 386.947 559.525 387.24C559.525 387.573 559.705 387.807 560.065 387.94C560.425 388.073 560.998 388.2 561.785 388.32C562.665 388.467 563.385 388.627 563.945 388.8C564.505 388.96 564.992 389.26 565.405 389.7C565.818 390.14 566.025 390.753 566.025 391.54C566.025 392.207 565.825 392.8 565.425 393.32C565.025 393.84 564.438 394.247 563.665 394.54C562.905 394.82 561.998 394.96 560.945 394.96ZM567.95 384.04H571.07V394.8H567.95V384.04ZM569.51 382.54C568.937 382.54 568.47 382.373 568.11 382.04C567.75 381.707 567.57 381.293 567.57 380.8C567.57 380.307 567.75 379.893 568.11 379.56C568.47 379.227 568.937 379.06 569.51 379.06C570.083 379.06 570.55 379.22 570.91 379.54C571.27 379.86 571.45 380.26 571.45 380.74C571.45 381.26 571.27 381.693 570.91 382.04C570.55 382.373 570.083 382.54 569.51 382.54ZM580.506 383.88C581.839 383.88 582.912 384.28 583.726 385.08C584.552 385.88 584.966 387.067 584.966 388.64V394.8H581.846V389.12C581.846 388.267 581.659 387.633 581.286 387.22C580.912 386.793 580.372 386.58 579.666 386.58C578.879 386.58 578.252 386.827 577.786 387.32C577.319 387.8 577.086 388.52 577.086 389.48V394.8H573.966V384.04H576.946V385.3C577.359 384.847 577.872 384.5 578.486 384.26C579.099 384.007 579.772 383.88 580.506 383.88ZM598.451 389.46C598.451 389.5 598.431 389.78 598.391 390.3H590.251C590.398 390.967 590.744 391.493 591.291 391.88C591.838 392.267 592.518 392.46 593.331 392.46C593.891 392.46 594.384 392.38 594.811 392.22C595.251 392.047 595.658 391.78 596.031 391.42L597.691 393.22C596.678 394.38 595.198 394.96 593.251 394.96C592.038 394.96 590.964 394.727 590.031 394.26C589.098 393.78 588.378 393.12 587.871 392.28C587.364 391.44 587.111 390.487 587.111 389.42C587.111 388.367 587.358 387.42 587.851 386.58C588.358 385.727 589.044 385.067 589.911 384.6C590.791 384.12 591.771 383.88 592.851 383.88C593.904 383.88 594.858 384.107 595.711 384.56C596.564 385.013 597.231 385.667 597.711 386.52C598.204 387.36 598.451 388.34 598.451 389.46ZM592.871 386.24C592.164 386.24 591.571 386.44 591.091 386.84C590.611 387.24 590.318 387.787 590.211 388.48H595.511C595.404 387.8 595.111 387.26 594.631 386.86C594.151 386.447 593.564 386.24 592.871 386.24ZM604.148 394.96C603.255 394.96 602.382 394.853 601.528 394.64C600.675 394.413 599.995 394.133 599.488 393.8L600.528 391.56C601.008 391.867 601.588 392.12 602.268 392.32C602.948 392.507 603.615 392.6 604.268 392.6C605.588 392.6 606.248 392.273 606.248 391.62C606.248 391.313 606.068 391.093 605.708 390.96C605.348 390.827 604.795 390.713 604.048 390.62C603.168 390.487 602.442 390.333 601.868 390.16C601.295 389.987 600.795 389.68 600.368 389.24C599.955 388.8 599.748 388.173 599.748 387.36C599.748 386.68 599.942 386.08 600.328 385.56C600.728 385.027 601.302 384.613 602.048 384.32C602.808 384.027 603.702 383.88 604.728 383.88C605.488 383.88 606.242 383.967 606.988 384.14C607.748 384.3 608.375 384.527 608.868 384.82L607.828 387.04C606.882 386.507 605.848 386.24 604.728 386.24C604.062 386.24 603.562 386.333 603.228 386.52C602.895 386.707 602.728 386.947 602.728 387.24C602.728 387.573 602.908 387.807 603.268 387.94C603.628 388.073 604.202 388.2 604.988 388.32C605.868 388.467 606.588 388.627 607.148 388.8C607.708 388.96 608.195 389.26 608.608 389.7C609.022 390.14 609.228 390.753 609.228 391.54C609.228 392.207 609.028 392.8 608.628 393.32C608.228 393.84 607.642 394.247 606.868 394.54C606.108 394.82 605.202 394.96 604.148 394.96ZM614.773 394.96C613.88 394.96 613.007 394.853 612.153 394.64C611.3 394.413 610.62 394.133 610.113 393.8L611.153 391.56C611.633 391.867 612.213 392.12 612.893 392.32C613.573 392.507 614.24 392.6 614.893 392.6C616.213 392.6 616.873 392.273 616.873 391.62C616.873 391.313 616.693 391.093 616.333 390.96C615.973 390.827 615.42 390.713 614.673 390.62C613.793 390.487 613.067 390.333 612.493 390.16C611.92 389.987 611.42 389.68 610.993 389.24C610.58 388.8 610.373 388.173 610.373 387.36C610.373 386.68 610.567 386.08 610.953 385.56C611.353 385.027 611.927 384.613 612.673 384.32C613.433 384.027 614.327 383.88 615.353 383.88C616.113 383.88 616.867 383.967 617.613 384.14C618.373 384.3 619 384.527 619.493 384.82L618.453 387.04C617.507 386.507 616.473 386.24 615.353 386.24C614.687 386.24 614.187 386.333 613.853 386.52C613.52 386.707 613.353 386.947 613.353 387.24C613.353 387.573 613.533 387.807 613.893 387.94C614.253 388.073 614.827 388.2 615.613 388.32C616.493 388.467 617.213 388.627 617.773 388.8C618.333 388.96 618.82 389.26 619.233 389.7C619.647 390.14 619.853 390.753 619.853 391.54C619.853 392.207 619.653 392.8 619.253 393.32C618.853 393.84 618.267 394.247 617.493 394.54C616.733 394.82 615.827 394.96 614.773 394.96ZM513.121 404.8H516.361V418.8H513.121V404.8ZM526.004 407.88C527.337 407.88 528.41 408.28 529.224 409.08C530.05 409.88 530.464 411.067 530.464 412.64V418.8H527.344V413.12C527.344 412.267 527.157 411.633 526.784 411.22C526.41 410.793 525.87 410.58 525.164 410.58C524.377 410.58 523.75 410.827 523.284 411.32C522.817 411.8 522.584 412.52 522.584 413.48V418.8H519.464V408.04H522.444V409.3C522.857 408.847 523.37 408.5 523.984 408.26C524.597 408.007 525.27 407.88 526.004 407.88ZM540.232 418.28C539.925 418.507 539.545 418.68 539.092 418.8C538.652 418.907 538.185 418.96 537.692 418.96C536.412 418.96 535.419 418.633 534.712 417.98C534.019 417.327 533.672 416.367 533.672 415.1V410.68H532.012V408.28H533.672V405.66H536.792V408.28H539.472V410.68H536.792V415.06C536.792 415.513 536.905 415.867 537.132 416.12C537.372 416.36 537.705 416.48 538.132 416.48C538.625 416.48 539.045 416.347 539.392 416.08L540.232 418.28ZM552.191 413.46C552.191 413.5 552.171 413.78 552.131 414.3H543.991C544.138 414.967 544.485 415.493 545.031 415.88C545.578 416.267 546.258 416.46 547.071 416.46C547.631 416.46 548.125 416.38 548.551 416.22C548.991 416.047 549.398 415.78 549.771 415.42L551.431 417.22C550.418 418.38 548.938 418.96 546.991 418.96C545.778 418.96 544.705 418.727 543.771 418.26C542.838 417.78 542.118 417.12 541.611 416.28C541.105 415.44 540.851 414.487 540.851 413.42C540.851 412.367 541.098 411.42 541.591 410.58C542.098 409.727 542.785 409.067 543.651 408.6C544.531 408.12 545.511 407.88 546.591 407.88C547.645 407.88 548.598 408.107 549.451 408.56C550.305 409.013 550.971 409.667 551.451 410.52C551.945 411.36 552.191 412.34 552.191 413.46ZM546.611 410.24C545.905 410.24 545.311 410.44 544.831 410.84C544.351 411.24 544.058 411.787 543.951 412.48H549.251C549.145 411.8 548.851 411.26 548.371 410.86C547.891 410.447 547.305 410.24 546.611 410.24ZM554.268 403.96H557.388V418.8H554.268V403.96ZM560.284 403.96H563.404V418.8H560.284V403.96ZM566.3 408.04H569.42V418.8H566.3V408.04ZM567.86 406.54C567.286 406.54 566.82 406.373 566.46 406.04C566.1 405.707 565.92 405.293 565.92 404.8C565.92 404.307 566.1 403.893 566.46 403.56C566.82 403.227 567.286 403.06 567.86 403.06C568.433 403.06 568.9 403.22 569.26 403.54C569.62 403.86 569.8 404.26 569.8 404.74C569.8 405.26 569.62 405.693 569.26 406.04C568.9 406.373 568.433 406.54 567.86 406.54ZM583.415 408.04V417C583.415 418.973 582.902 420.44 581.875 421.4C580.849 422.36 579.349 422.84 577.375 422.84C576.335 422.84 575.349 422.713 574.415 422.46C573.482 422.207 572.709 421.84 572.095 421.36L573.335 419.12C573.789 419.493 574.362 419.787 575.055 420C575.749 420.227 576.442 420.34 577.135 420.34C578.215 420.34 579.009 420.093 579.515 419.6C580.035 419.12 580.295 418.387 580.295 417.4V416.94C579.482 417.833 578.349 418.28 576.895 418.28C575.909 418.28 575.002 418.067 574.175 417.64C573.362 417.2 572.715 416.587 572.235 415.8C571.755 415.013 571.515 414.107 571.515 413.08C571.515 412.053 571.755 411.147 572.235 410.36C572.715 409.573 573.362 408.967 574.175 408.54C575.002 408.1 575.909 407.88 576.895 407.88C578.455 407.88 579.642 408.393 580.455 409.42V408.04H583.415ZM577.515 415.72C578.342 415.72 579.015 415.48 579.535 415C580.069 414.507 580.335 413.867 580.335 413.08C580.335 412.293 580.069 411.66 579.535 411.18C579.015 410.687 578.342 410.44 577.515 410.44C576.689 410.44 576.009 410.687 575.475 411.18C574.942 411.66 574.675 412.293 574.675 413.08C574.675 413.867 574.942 414.507 575.475 415C576.009 415.48 576.689 415.72 577.515 415.72ZM596.859 413.46C596.859 413.5 596.839 413.78 596.799 414.3H588.659C588.806 414.967 589.153 415.493 589.699 415.88C590.246 416.267 590.926 416.46 591.739 416.46C592.299 416.46 592.793 416.38 593.219 416.22C593.659 416.047 594.066 415.78 594.439 415.42L596.099 417.22C595.086 418.38 593.606 418.96 591.659 418.96C590.446 418.96 589.373 418.727 588.439 418.26C587.506 417.78 586.786 417.12 586.279 416.28C585.773 415.44 585.519 414.487 585.519 413.42C585.519 412.367 585.766 411.42 586.259 410.58C586.766 409.727 587.453 409.067 588.319 408.6C589.199 408.12 590.179 407.88 591.259 407.88C592.313 407.88 593.266 408.107 594.119 408.56C594.973 409.013 595.639 409.667 596.119 410.52C596.613 411.36 596.859 412.34 596.859 413.46ZM591.279 410.24C590.573 410.24 589.979 410.44 589.499 410.84C589.019 411.24 588.726 411.787 588.619 412.48H593.919C593.813 411.8 593.519 411.26 593.039 410.86C592.559 410.447 591.973 410.24 591.279 410.24ZM605.476 407.88C606.81 407.88 607.883 408.28 608.696 409.08C609.523 409.88 609.936 411.067 609.936 412.64V418.8H606.816V413.12C606.816 412.267 606.63 411.633 606.256 411.22C605.883 410.793 605.343 410.58 604.636 410.58C603.85 410.58 603.223 410.827 602.756 411.32C602.29 411.8 602.056 412.52 602.056 413.48V418.8H598.936V408.04H601.916V409.3C602.33 408.847 602.843 408.5 603.456 408.26C604.07 408.007 604.743 407.88 605.476 407.88ZM618.082 418.96C616.935 418.96 615.902 418.727 614.982 418.26C614.075 417.78 613.362 417.12 612.842 416.28C612.335 415.44 612.082 414.487 612.082 413.42C612.082 412.353 612.335 411.4 612.842 410.56C613.362 409.72 614.075 409.067 614.982 408.6C615.902 408.12 616.935 407.88 618.082 407.88C619.215 407.88 620.202 408.12 621.042 408.6C621.895 409.067 622.515 409.74 622.902 410.62L620.482 411.92C619.922 410.933 619.115 410.44 618.062 410.44C617.248 410.44 616.575 410.707 616.042 411.24C615.508 411.773 615.242 412.5 615.242 413.42C615.242 414.34 615.508 415.067 616.042 415.6C616.575 416.133 617.248 416.4 618.062 416.4C619.128 416.4 619.935 415.907 620.482 414.92L622.902 416.24C622.515 417.093 621.895 417.76 621.042 418.24C620.202 418.72 619.215 418.96 618.082 418.96ZM635.101 413.46C635.101 413.5 635.081 413.78 635.041 414.3H626.901C627.048 414.967 627.395 415.493 627.941 415.88C628.488 416.267 629.168 416.46 629.981 416.46C630.541 416.46 631.035 416.38 631.461 416.22C631.901 416.047 632.308 415.78 632.681 415.42L634.341 417.22C633.328 418.38 631.848 418.96 629.901 418.96C628.688 418.96 627.615 418.727 626.681 418.26C625.748 417.78 625.028 417.12 624.521 416.28C624.015 415.44 623.761 414.487 623.761 413.42C623.761 412.367 624.008 411.42 624.501 410.58C625.008 409.727 625.695 409.067 626.561 408.6C627.441 408.12 628.421 407.88 629.501 407.88C630.555 407.88 631.508 408.107 632.361 408.56C633.215 409.013 633.881 409.667 634.361 410.52C634.855 411.36 635.101 412.34 635.101 413.46ZM629.521 410.24C628.815 410.24 628.221 410.44 627.741 410.84C627.261 411.24 626.968 411.787 626.861 412.48H632.161C632.055 411.8 631.761 411.26 631.281 410.86C630.801 410.447 630.215 410.24 629.521 410.24Z" fill="#59830A"/>
<circle cx="398" cy="500" r="100" fill="url(#paint5_linear)"/>
<path d="M470.5 500C470.5 540.041 438.041 572.5 398 572.5C357.959 572.5 325.5 540.041 325.5 500C325.5 459.959 357.959 427.5 398 427.5C438.041 427.5 470.5 459.959 470.5 500Z" stroke="#5770A8" stroke-width="15"/>
<path d="M352.156 477.8C353.396 477.8 354.469 478.007 355.376 478.42C356.296 478.833 357.003 479.42 357.496 480.18C357.989 480.94 358.236 481.84 358.236 482.88C358.236 483.907 357.989 484.807 357.496 485.58C357.003 486.34 356.296 486.927 355.376 487.34C354.469 487.74 353.396 487.94 352.156 487.94H349.336V491.8H346.096V477.8H352.156ZM351.976 485.3C352.949 485.3 353.689 485.093 354.196 484.68C354.703 484.253 354.956 483.653 354.956 482.88C354.956 482.093 354.703 481.493 354.196 481.08C353.689 480.653 352.949 480.44 351.976 480.44H349.336V485.3H351.976ZM363.309 482.46C363.682 481.94 364.182 481.547 364.809 481.28C365.449 481.013 366.182 480.88 367.009 480.88V483.76C366.662 483.733 366.429 483.72 366.309 483.72C365.416 483.72 364.716 483.973 364.209 484.48C363.702 484.973 363.449 485.72 363.449 486.72V491.8H360.329V481.04H363.309V482.46ZM379.307 486.46C379.307 486.5 379.287 486.78 379.247 487.3H371.107C371.253 487.967 371.6 488.493 372.147 488.88C372.693 489.267 373.373 489.46 374.187 489.46C374.747 489.46 375.24 489.38 375.667 489.22C376.107 489.047 376.513 488.78 376.887 488.42L378.547 490.22C377.533 491.38 376.053 491.96 374.107 491.96C372.893 491.96 371.82 491.727 370.887 491.26C369.953 490.78 369.233 490.12 368.727 489.28C368.22 488.44 367.967 487.487 367.967 486.42C367.967 485.367 368.213 484.42 368.707 483.58C369.213 482.727 369.9 482.067 370.767 481.6C371.647 481.12 372.627 480.88 373.707 480.88C374.76 480.88 375.713 481.107 376.567 481.56C377.42 482.013 378.087 482.667 378.567 483.52C379.06 484.36 379.307 485.34 379.307 486.46ZM373.727 483.24C373.02 483.24 372.427 483.44 371.947 483.84C371.467 484.24 371.173 484.787 371.067 485.48H376.367C376.26 484.8 375.967 484.26 375.487 483.86C375.007 483.447 374.42 483.24 373.727 483.24ZM392.344 476.96V491.8H389.364V490.56C388.59 491.493 387.47 491.96 386.004 491.96C384.99 491.96 384.07 491.733 383.244 491.28C382.43 490.827 381.79 490.18 381.324 489.34C380.857 488.5 380.624 487.527 380.624 486.42C380.624 485.313 380.857 484.34 381.324 483.5C381.79 482.66 382.43 482.013 383.244 481.56C384.07 481.107 384.99 480.88 386.004 480.88C387.377 480.88 388.45 481.313 389.224 482.18V476.96H392.344ZM386.544 489.4C387.33 489.4 387.984 489.133 388.504 488.6C389.024 488.053 389.284 487.327 389.284 486.42C389.284 485.513 389.024 484.793 388.504 484.26C387.984 483.713 387.33 483.44 386.544 483.44C385.744 483.44 385.084 483.713 384.564 484.26C384.044 484.793 383.784 485.513 383.784 486.42C383.784 487.327 384.044 488.053 384.564 488.6C385.084 489.133 385.744 489.4 386.544 489.4ZM395.231 481.04H398.351V491.8H395.231V481.04ZM396.791 479.54C396.218 479.54 395.751 479.373 395.391 479.04C395.031 478.707 394.851 478.293 394.851 477.8C394.851 477.307 395.031 476.893 395.391 476.56C395.751 476.227 396.218 476.06 396.791 476.06C397.365 476.06 397.831 476.22 398.191 476.54C398.551 476.86 398.731 477.26 398.731 477.74C398.731 478.26 398.551 478.693 398.191 479.04C397.831 479.373 397.365 479.54 396.791 479.54ZM406.447 491.96C405.3 491.96 404.267 491.727 403.347 491.26C402.44 490.78 401.727 490.12 401.207 489.28C400.7 488.44 400.447 487.487 400.447 486.42C400.447 485.353 400.7 484.4 401.207 483.56C401.727 482.72 402.44 482.067 403.347 481.6C404.267 481.12 405.3 480.88 406.447 480.88C407.58 480.88 408.567 481.12 409.407 481.6C410.26 482.067 410.88 482.74 411.267 483.62L408.847 484.92C408.287 483.933 407.48 483.44 406.427 483.44C405.614 483.44 404.94 483.707 404.407 484.24C403.874 484.773 403.607 485.5 403.607 486.42C403.607 487.34 403.874 488.067 404.407 488.6C404.94 489.133 405.614 489.4 406.427 489.4C407.494 489.4 408.3 488.907 408.847 487.92L411.267 489.24C410.88 490.093 410.26 490.76 409.407 491.24C408.567 491.72 407.58 491.96 406.447 491.96ZM420.16 491.28C419.853 491.507 419.473 491.68 419.02 491.8C418.58 491.907 418.113 491.96 417.62 491.96C416.34 491.96 415.346 491.633 414.64 490.98C413.946 490.327 413.6 489.367 413.6 488.1V483.68H411.94V481.28H413.6V478.66H416.72V481.28H419.4V483.68H416.72V488.06C416.72 488.513 416.833 488.867 417.06 489.12C417.3 489.36 417.633 489.48 418.06 489.48C418.553 489.48 418.973 489.347 419.32 489.08L420.16 491.28ZM421.911 481.04H425.031V491.8H421.911V481.04ZM423.471 479.54C422.898 479.54 422.431 479.373 422.071 479.04C421.711 478.707 421.531 478.293 421.531 477.8C421.531 477.307 421.711 476.893 422.071 476.56C422.431 476.227 422.898 476.06 423.471 476.06C424.044 476.06 424.511 476.22 424.871 476.54C425.231 476.86 425.411 477.26 425.411 477.74C425.411 478.26 425.231 478.693 424.871 479.04C424.511 479.373 424.044 479.54 423.471 479.54ZM438.607 481.04L434.067 491.8H430.847L426.327 481.04H429.547L432.527 488.36L435.607 481.04H438.607ZM450.127 486.46C450.127 486.5 450.107 486.78 450.067 487.3H441.927C442.074 487.967 442.42 488.493 442.967 488.88C443.514 489.267 444.194 489.46 445.007 489.46C445.567 489.46 446.06 489.38 446.487 489.22C446.927 489.047 447.334 488.78 447.707 488.42L449.367 490.22C448.354 491.38 446.874 491.96 444.927 491.96C443.714 491.96 442.64 491.727 441.707 491.26C440.774 490.78 440.054 490.12 439.547 489.28C439.04 488.44 438.787 487.487 438.787 486.42C438.787 485.367 439.034 484.42 439.527 483.58C440.034 482.727 440.72 482.067 441.587 481.6C442.467 481.12 443.447 480.88 444.527 480.88C445.58 480.88 446.534 481.107 447.387 481.56C448.24 482.013 448.907 482.667 449.387 483.52C449.88 484.36 450.127 485.34 450.127 486.46ZM444.547 483.24C443.84 483.24 443.247 483.44 442.767 483.84C442.287 484.24 441.994 484.787 441.887 485.48H447.187C447.08 484.8 446.787 484.26 446.307 483.86C445.827 483.447 445.24 483.24 444.547 483.24ZM362.674 515.8L362.654 507.4L358.534 514.32H357.074L352.974 507.58V515.8H349.934V501.8H352.614L357.854 510.5L363.014 501.8H365.674L365.714 515.8H362.674ZM373.935 515.96C372.802 515.96 371.782 515.727 370.875 515.26C369.982 514.78 369.282 514.12 368.775 513.28C368.269 512.44 368.015 511.487 368.015 510.42C368.015 509.353 368.269 508.4 368.775 507.56C369.282 506.72 369.982 506.067 370.875 505.6C371.782 505.12 372.802 504.88 373.935 504.88C375.069 504.88 376.082 505.12 376.975 505.6C377.869 506.067 378.569 506.72 379.075 507.56C379.582 508.4 379.835 509.353 379.835 510.42C379.835 511.487 379.582 512.44 379.075 513.28C378.569 514.12 377.869 514.78 376.975 515.26C376.082 515.727 375.069 515.96 373.935 515.96ZM373.935 513.4C374.735 513.4 375.389 513.133 375.895 512.6C376.415 512.053 376.675 511.327 376.675 510.42C376.675 509.513 376.415 508.793 375.895 508.26C375.389 507.713 374.735 507.44 373.935 507.44C373.135 507.44 372.475 507.713 371.955 508.26C371.435 508.793 371.175 509.513 371.175 510.42C371.175 511.327 371.435 512.053 371.955 512.6C372.475 513.133 373.135 513.4 373.935 513.4ZM392.881 500.96V515.8H389.901V514.56C389.128 515.493 388.008 515.96 386.541 515.96C385.528 515.96 384.608 515.733 383.781 515.28C382.968 514.827 382.328 514.18 381.861 513.34C381.394 512.5 381.161 511.527 381.161 510.42C381.161 509.313 381.394 508.34 381.861 507.5C382.328 506.66 382.968 506.013 383.781 505.56C384.608 505.107 385.528 504.88 386.541 504.88C387.914 504.88 388.988 505.313 389.761 506.18V500.96H392.881ZM387.081 513.4C387.868 513.4 388.521 513.133 389.041 512.6C389.561 512.053 389.821 511.327 389.821 510.42C389.821 509.513 389.561 508.793 389.041 508.26C388.521 507.713 387.868 507.44 387.081 507.44C386.281 507.44 385.621 507.713 385.101 508.26C384.581 508.793 384.321 509.513 384.321 510.42C384.321 511.327 384.581 512.053 385.101 512.6C385.621 513.133 386.281 513.4 387.081 513.4ZM406.308 510.46C406.308 510.5 406.288 510.78 406.248 511.3H398.108C398.255 511.967 398.602 512.493 399.148 512.88C399.695 513.267 400.375 513.46 401.188 513.46C401.748 513.46 402.242 513.38 402.668 513.22C403.108 513.047 403.515 512.78 403.888 512.42L405.548 514.22C404.535 515.38 403.055 515.96 401.108 515.96C399.895 515.96 398.822 515.727 397.888 515.26C396.955 514.78 396.235 514.12 395.728 513.28C395.222 512.44 394.968 511.487 394.968 510.42C394.968 509.367 395.215 508.42 395.708 507.58C396.215 506.727 396.902 506.067 397.768 505.6C398.648 505.12 399.628 504.88 400.708 504.88C401.762 504.88 402.715 505.107 403.568 505.56C404.422 506.013 405.088 506.667 405.568 507.52C406.062 508.36 406.308 509.34 406.308 510.46ZM400.728 507.24C400.022 507.24 399.428 507.44 398.948 507.84C398.468 508.24 398.175 508.787 398.068 509.48H403.368C403.262 508.8 402.968 508.26 402.488 507.86C402.008 507.447 401.422 507.24 400.728 507.24ZM408.386 500.96H411.506V515.8H408.386V500.96ZM414.401 505.04H417.521V515.8H414.401V505.04ZM415.961 503.54C415.388 503.54 414.921 503.373 414.561 503.04C414.201 502.707 414.021 502.293 414.021 501.8C414.021 501.307 414.201 500.893 414.561 500.56C414.921 500.227 415.388 500.06 415.961 500.06C416.535 500.06 417.001 500.22 417.361 500.54C417.721 500.86 417.901 501.26 417.901 501.74C417.901 502.26 417.721 502.693 417.361 503.04C417.001 503.373 416.535 503.54 415.961 503.54ZM426.957 504.88C428.29 504.88 429.364 505.28 430.177 506.08C431.004 506.88 431.417 508.067 431.417 509.64V515.8H428.297V510.12C428.297 509.267 428.11 508.633 427.737 508.22C427.364 507.793 426.824 507.58 426.117 507.58C425.33 507.58 424.704 507.827 424.237 508.32C423.77 508.8 423.537 509.52 423.537 510.48V515.8H420.417V505.04H423.397V506.3C423.81 505.847 424.324 505.5 424.937 505.26C425.55 505.007 426.224 504.88 426.957 504.88ZM445.462 505.04V514C445.462 515.973 444.949 517.44 443.922 518.4C442.896 519.36 441.396 519.84 439.422 519.84C438.382 519.84 437.396 519.713 436.462 519.46C435.529 519.207 434.756 518.84 434.142 518.36L435.382 516.12C435.836 516.493 436.409 516.787 437.102 517C437.796 517.227 438.489 517.34 439.182 517.34C440.262 517.34 441.056 517.093 441.562 516.6C442.082 516.12 442.342 515.387 442.342 514.4V513.94C441.529 514.833 440.396 515.28 438.942 515.28C437.956 515.28 437.049 515.067 436.222 514.64C435.409 514.2 434.762 513.587 434.282 512.8C433.802 512.013 433.562 511.107 433.562 510.08C433.562 509.053 433.802 508.147 434.282 507.36C434.762 506.573 435.409 505.967 436.222 505.54C437.049 505.1 437.956 504.88 438.942 504.88C440.502 504.88 441.689 505.393 442.502 506.42V505.04H445.462ZM439.562 512.72C440.389 512.72 441.062 512.48 441.582 512C442.116 511.507 442.382 510.867 442.382 510.08C442.382 509.293 442.116 508.66 441.582 508.18C441.062 507.687 440.389 507.44 439.562 507.44C438.736 507.44 438.056 507.687 437.522 508.18C436.989 508.66 436.722 509.293 436.722 510.08C436.722 510.867 436.989 511.507 437.522 512C438.056 512.48 438.736 512.72 439.562 512.72Z" fill="#5770A8"/>
<circle cx="225" cy="400" r="100" fill="url(#paint6_linear)"/>
<path d="M297.5 400C297.5 440.041 265.041 472.5 225 472.5C184.959 472.5 152.5 440.041 152.5 400C152.5 359.959 184.959 327.5 225 327.5C265.041 327.5 297.5 359.959 297.5 400Z" stroke="#52A596" stroke-width="15"/>
<path d="M182.92 389.2V391.8H172.08V377.8H182.66V380.4H175.3V383.44H181.8V385.96H175.3V389.2H182.92ZM191.818 380.88C193.152 380.88 194.225 381.28 195.038 382.08C195.865 382.88 196.278 384.067 196.278 385.64V391.8H193.158V386.12C193.158 385.267 192.972 384.633 192.598 384.22C192.225 383.793 191.685 383.58 190.978 383.58C190.192 383.58 189.565 383.827 189.098 384.32C188.632 384.8 188.398 385.52 188.398 386.48V391.8H185.278V381.04H188.258V382.3C188.672 381.847 189.185 381.5 189.798 381.26C190.412 381.007 191.085 380.88 191.818 380.88ZM206.046 391.28C205.74 391.507 205.36 391.68 204.906 391.8C204.466 391.907 204 391.96 203.506 391.96C202.226 391.96 201.233 391.633 200.526 390.98C199.833 390.327 199.486 389.367 199.486 388.1V383.68H197.826V381.28H199.486V378.66H202.606V381.28H205.286V383.68H202.606V388.06C202.606 388.513 202.72 388.867 202.946 389.12C203.186 389.36 203.52 389.48 203.946 389.48C204.44 389.48 204.86 389.347 205.206 389.08L206.046 391.28ZM218.006 386.46C218.006 386.5 217.986 386.78 217.946 387.3H209.806C209.952 387.967 210.299 388.493 210.846 388.88C211.392 389.267 212.072 389.46 212.886 389.46C213.446 389.46 213.939 389.38 214.366 389.22C214.806 389.047 215.212 388.78 215.586 388.42L217.246 390.22C216.232 391.38 214.752 391.96 212.806 391.96C211.592 391.96 210.519 391.727 209.586 391.26C208.652 390.78 207.932 390.12 207.426 389.28C206.919 388.44 206.666 387.487 206.666 386.42C206.666 385.367 206.912 384.42 207.406 383.58C207.912 382.727 208.599 382.067 209.466 381.6C210.346 381.12 211.326 380.88 212.406 380.88C213.459 380.88 214.412 381.107 215.266 381.56C216.119 382.013 216.786 382.667 217.266 383.52C217.759 384.36 218.006 385.34 218.006 386.46ZM212.426 383.24C211.719 383.24 211.126 383.44 210.646 383.84C210.166 384.24 209.872 384.787 209.766 385.48H215.066C214.959 384.8 214.666 384.26 214.186 383.86C213.706 383.447 213.119 383.24 212.426 383.24ZM223.063 382.46C223.436 381.94 223.936 381.547 224.563 381.28C225.203 381.013 225.936 380.88 226.763 380.88V383.76C226.416 383.733 226.183 383.72 226.063 383.72C225.17 383.72 224.47 383.973 223.963 384.48C223.456 384.973 223.203 385.72 223.203 386.72V391.8H220.083V381.04H223.063V382.46ZM234.978 380.88C235.978 380.88 236.885 381.113 237.698 381.58C238.525 382.033 239.171 382.68 239.638 383.52C240.105 384.347 240.338 385.313 240.338 386.42C240.338 387.527 240.105 388.5 239.638 389.34C239.171 390.167 238.525 390.813 237.698 391.28C236.885 391.733 235.978 391.96 234.978 391.96C233.605 391.96 232.525 391.527 231.738 390.66V395.68H228.618V381.04H231.598V382.28C232.371 381.347 233.498 380.88 234.978 380.88ZM234.438 389.4C235.238 389.4 235.891 389.133 236.398 388.6C236.918 388.053 237.178 387.327 237.178 386.42C237.178 385.513 236.918 384.793 236.398 384.26C235.891 383.713 235.238 383.44 234.438 383.44C233.638 383.44 232.978 383.713 232.458 384.26C231.951 384.793 231.698 385.513 231.698 386.42C231.698 387.327 231.951 388.053 232.458 388.6C232.978 389.133 233.638 389.4 234.438 389.4ZM245.407 382.46C245.78 381.94 246.28 381.547 246.907 381.28C247.547 381.013 248.28 380.88 249.107 380.88V383.76C248.76 383.733 248.527 383.72 248.407 383.72C247.513 383.72 246.813 383.973 246.307 384.48C245.8 384.973 245.547 385.72 245.547 386.72V391.8H242.427V381.04H245.407V382.46ZM250.962 381.04H254.082V391.8H250.962V381.04ZM252.522 379.54C251.949 379.54 251.482 379.373 251.122 379.04C250.762 378.707 250.582 378.293 250.582 377.8C250.582 377.307 250.762 376.893 251.122 376.56C251.482 376.227 251.949 376.06 252.522 376.06C253.095 376.06 253.562 376.22 253.922 376.54C254.282 376.86 254.462 377.26 254.462 377.74C254.462 378.26 254.282 378.693 253.922 379.04C253.562 379.373 253.095 379.54 252.522 379.54ZM260.597 391.96C259.704 391.96 258.831 391.853 257.977 391.64C257.124 391.413 256.444 391.133 255.937 390.8L256.977 388.56C257.457 388.867 258.037 389.12 258.717 389.32C259.397 389.507 260.064 389.6 260.717 389.6C262.037 389.6 262.697 389.273 262.697 388.62C262.697 388.313 262.517 388.093 262.157 387.96C261.797 387.827 261.244 387.713 260.497 387.62C259.617 387.487 258.891 387.333 258.317 387.16C257.744 386.987 257.244 386.68 256.817 386.24C256.404 385.8 256.197 385.173 256.197 384.36C256.197 383.68 256.391 383.08 256.777 382.56C257.177 382.027 257.751 381.613 258.497 381.32C259.257 381.027 260.151 380.88 261.177 380.88C261.937 380.88 262.691 380.967 263.437 381.14C264.197 381.3 264.824 381.527 265.317 381.82L264.277 384.04C263.331 383.507 262.297 383.24 261.177 383.24C260.511 383.24 260.011 383.333 259.677 383.52C259.344 383.707 259.177 383.947 259.177 384.24C259.177 384.573 259.357 384.807 259.717 384.94C260.077 385.073 260.651 385.2 261.437 385.32C262.317 385.467 263.037 385.627 263.597 385.8C264.157 385.96 264.644 386.26 265.057 386.7C265.471 387.14 265.677 387.753 265.677 388.54C265.677 389.207 265.477 389.8 265.077 390.32C264.677 390.84 264.091 391.247 263.317 391.54C262.557 391.82 261.651 391.96 260.597 391.96ZM278.142 386.46C278.142 386.5 278.122 386.78 278.082 387.3H269.942C270.089 387.967 270.436 388.493 270.982 388.88C271.529 389.267 272.209 389.46 273.022 389.46C273.582 389.46 274.076 389.38 274.502 389.22C274.942 389.047 275.349 388.78 275.722 388.42L277.382 390.22C276.369 391.38 274.889 391.96 272.942 391.96C271.729 391.96 270.656 391.727 269.722 391.26C268.789 390.78 268.069 390.12 267.562 389.28C267.056 388.44 266.802 387.487 266.802 386.42C266.802 385.367 267.049 384.42 267.542 383.58C268.049 382.727 268.736 382.067 269.602 381.6C270.482 381.12 271.462 380.88 272.542 380.88C273.596 380.88 274.549 381.107 275.402 381.56C276.256 382.013 276.922 382.667 277.402 383.52C277.896 384.36 278.142 385.34 278.142 386.46ZM272.562 383.24C271.856 383.24 271.262 383.44 270.782 383.84C270.302 384.24 270.009 384.787 269.902 385.48H275.202C275.096 384.8 274.802 384.26 274.322 383.86C273.842 383.447 273.256 383.24 272.562 383.24ZM182.28 415.8L179.58 411.9H179.42H176.6V415.8H173.36V401.8H179.42C180.66 401.8 181.733 402.007 182.64 402.42C183.56 402.833 184.266 403.42 184.76 404.18C185.253 404.94 185.5 405.84 185.5 406.88C185.5 407.92 185.246 408.82 184.74 409.58C184.246 410.327 183.54 410.9 182.62 411.3L185.76 415.8H182.28ZM182.22 406.88C182.22 406.093 181.966 405.493 181.46 405.08C180.953 404.653 180.213 404.44 179.24 404.44H176.6V409.32H179.24C180.213 409.32 180.953 409.107 181.46 408.68C181.966 408.253 182.22 407.653 182.22 406.88ZM198.387 410.46C198.387 410.5 198.367 410.78 198.327 411.3H190.187C190.333 411.967 190.68 412.493 191.227 412.88C191.773 413.267 192.453 413.46 193.267 413.46C193.827 413.46 194.32 413.38 194.747 413.22C195.187 413.047 195.593 412.78 195.967 412.42L197.627 414.22C196.613 415.38 195.133 415.96 193.187 415.96C191.973 415.96 190.9 415.727 189.967 415.26C189.033 414.78 188.313 414.12 187.807 413.28C187.3 412.44 187.047 411.487 187.047 410.42C187.047 409.367 187.293 408.42 187.787 407.58C188.293 406.727 188.98 406.067 189.847 405.6C190.727 405.12 191.707 404.88 192.787 404.88C193.84 404.88 194.793 405.107 195.647 405.56C196.5 406.013 197.167 406.667 197.647 407.52C198.14 408.36 198.387 409.34 198.387 410.46ZM192.807 407.24C192.1 407.24 191.507 407.44 191.027 407.84C190.547 408.24 190.253 408.787 190.147 409.48H195.447C195.34 408.8 195.047 408.26 194.567 407.86C194.087 407.447 193.5 407.24 192.807 407.24ZM206.824 404.88C207.824 404.88 208.73 405.113 209.544 405.58C210.37 406.033 211.017 406.68 211.484 407.52C211.95 408.347 212.184 409.313 212.184 410.42C212.184 411.527 211.95 412.5 211.484 413.34C211.017 414.167 210.37 414.813 209.544 415.28C208.73 415.733 207.824 415.96 206.824 415.96C205.45 415.96 204.37 415.527 203.584 414.66V419.68H200.464V405.04H203.444V406.28C204.217 405.347 205.344 404.88 206.824 404.88ZM206.284 413.4C207.084 413.4 207.737 413.133 208.244 412.6C208.764 412.053 209.024 411.327 209.024 410.42C209.024 409.513 208.764 408.793 208.244 408.26C207.737 407.713 207.084 407.44 206.284 407.44C205.484 407.44 204.824 407.713 204.304 408.26C203.797 408.793 203.544 409.513 203.544 410.42C203.544 411.327 203.797 412.053 204.304 412.6C204.824 413.133 205.484 413.4 206.284 413.4ZM219.392 415.96C218.259 415.96 217.239 415.727 216.332 415.26C215.439 414.78 214.739 414.12 214.232 413.28C213.726 412.44 213.472 411.487 213.472 410.42C213.472 409.353 213.726 408.4 214.232 407.56C214.739 406.72 215.439 406.067 216.332 405.6C217.239 405.12 218.259 404.88 219.392 404.88C220.526 404.88 221.539 405.12 222.432 405.6C223.326 406.067 224.026 406.72 224.532 407.56C225.039 408.4 225.292 409.353 225.292 410.42C225.292 411.487 225.039 412.44 224.532 413.28C224.026 414.12 223.326 414.78 222.432 415.26C221.539 415.727 220.526 415.96 219.392 415.96ZM219.392 413.4C220.192 413.4 220.846 413.133 221.352 412.6C221.872 412.053 222.132 411.327 222.132 410.42C222.132 409.513 221.872 408.793 221.352 408.26C220.846 407.713 220.192 407.44 219.392 407.44C218.592 407.44 217.932 407.713 217.412 408.26C216.892 408.793 216.632 409.513 216.632 410.42C216.632 411.327 216.892 412.053 217.412 412.6C217.932 413.133 218.592 413.4 219.392 413.4ZM230.358 406.46C230.731 405.94 231.231 405.547 231.858 405.28C232.498 405.013 233.231 404.88 234.058 404.88V407.76C233.711 407.733 233.478 407.72 233.358 407.72C232.465 407.72 231.765 407.973 231.258 408.48C230.751 408.973 230.498 409.72 230.498 410.72V415.8H227.378V405.04H230.358V406.46ZM243.224 415.28C242.917 415.507 242.537 415.68 242.084 415.8C241.644 415.907 241.177 415.96 240.684 415.96C239.404 415.96 238.411 415.633 237.704 414.98C237.011 414.327 236.664 413.367 236.664 412.1V407.68H235.004V405.28H236.664V402.66H239.784V405.28H242.464V407.68H239.784V412.06C239.784 412.513 239.897 412.867 240.124 413.12C240.364 413.36 240.697 413.48 241.124 413.48C241.617 413.48 242.037 413.347 242.384 413.08L243.224 415.28ZM244.976 405.04H248.096V415.8H244.976V405.04ZM246.536 403.54C245.962 403.54 245.496 403.373 245.136 403.04C244.776 402.707 244.596 402.293 244.596 401.8C244.596 401.307 244.776 400.893 245.136 400.56C245.496 400.227 245.962 400.06 246.536 400.06C247.109 400.06 247.576 400.22 247.936 400.54C248.296 400.86 248.476 401.26 248.476 401.74C248.476 402.26 248.296 402.693 247.936 403.04C247.576 403.373 247.109 403.54 246.536 403.54ZM257.531 404.88C258.864 404.88 259.938 405.28 260.751 406.08C261.578 406.88 261.991 408.067 261.991 409.64V415.8H258.871V410.12C258.871 409.267 258.684 408.633 258.311 408.22C257.938 407.793 257.398 407.58 256.691 407.58C255.904 407.58 255.278 407.827 254.811 408.32C254.344 408.8 254.111 409.52 254.111 410.48V415.8H250.991V405.04H253.971V406.3C254.384 405.847 254.898 405.5 255.511 405.26C256.124 405.007 256.798 404.88 257.531 404.88ZM276.036 405.04V414C276.036 415.973 275.523 417.44 274.496 418.4C273.47 419.36 271.97 419.84 269.996 419.84C268.956 419.84 267.97 419.713 267.036 419.46C266.103 419.207 265.33 418.84 264.716 418.36L265.956 416.12C266.41 416.493 266.983 416.787 267.676 417C268.37 417.227 269.063 417.34 269.756 417.34C270.836 417.34 271.63 417.093 272.136 416.6C272.656 416.12 272.916 415.387 272.916 414.4V413.94C272.103 414.833 270.97 415.28 269.516 415.28C268.53 415.28 267.623 415.067 266.796 414.64C265.983 414.2 265.336 413.587 264.856 412.8C264.376 412.013 264.136 411.107 264.136 410.08C264.136 409.053 264.376 408.147 264.856 407.36C265.336 406.573 265.983 405.967 266.796 405.54C267.623 405.1 268.53 404.88 269.516 404.88C271.076 404.88 272.263 405.393 273.076 406.42V405.04H276.036ZM270.136 412.72C270.963 412.72 271.636 412.48 272.156 412C272.69 411.507 272.956 410.867 272.956 410.08C272.956 409.293 272.69 408.66 272.156 408.18C271.636 407.687 270.963 407.44 270.136 407.44C269.31 407.44 268.63 407.687 268.096 408.18C267.563 408.66 267.296 409.293 267.296 410.08C267.296 410.867 267.563 411.507 268.096 412C268.63 412.48 269.31 412.72 270.136 412.72Z" fill="#52A596"/>
<defs>
<linearGradient id="paint0_linear" x1="486" y1="354.8" x2="242.8" y2="192.4" gradientUnits="userSpaceOnUse">
<stop stop-color="#A5A5A5"/>
<stop offset="1" stop-color="#D6D4D7" stop-opacity="0"/>
</linearGradient>
<linearGradient id="paint1_linear" x1="313" y1="244" x2="125" y2="131" gradientUnits="userSpaceOnUse">
<stop stop-color="#A5A5A5"/>
<stop offset="1" stop-color="#D6D4D7" stop-opacity="0"/>
</linearGradient>
<linearGradient id="paint2_linear" x1="399" y1="200" x2="399" y2="8.49999" gradientUnits="userSpaceOnUse">
<stop offset="0.0520833" stop-color="#A5A5A5"/>
<stop offset="0.979167" stop-color="#A5A5A5" stop-opacity="0.18"/>
</linearGradient>
<linearGradient id="paint3_linear" x1="472" y1="252" x2="672" y2="102" gradientUnits="userSpaceOnUse">
<stop stop-color="#A5A5A5"/>
<stop offset="1" stop-color="#A5A5A5" stop-opacity="0"/>
</linearGradient>
<linearGradient id="paint4_linear" x1="491.5" y1="339" x2="674" y2="452" gradientUnits="userSpaceOnUse">
<stop stop-color="#A5A5A5"/>
<stop offset="1" stop-color="#A5A5A5" stop-opacity="0"/>
</linearGradient>
<linearGradient id="paint5_linear" x1="398" y1="400" x2="398" y2="600" gradientUnits="userSpaceOnUse">
<stop stop-color="#A5A5A5"/>
<stop offset="1" stop-color="#A5A5A5" stop-opacity="0"/>
</linearGradient>
<linearGradient id="paint6_linear" x1="310" y1="345" x2="125" y2="462.5" gradientUnits="userSpaceOnUse">
<stop stop-color="#A5A5A5"/>
<stop offset="1" stop-color="#A5A5A5" stop-opacity="0"/>
</linearGradient>
</defs>
</svg>
