<svg width="800" height="600" viewBox="0 0 800 600" fill="none" xmlns="http://www.w3.org/2000/svg">
<rect width="800" height="600" fill="#C3DE8F"/>
<rect x="75" y="450" width="650" height="150" fill="#5770A8"/>
<path d="M273.885 537.576C271.229 537.576 268.653 537.224 266.157 536.52C263.693 535.784 261.709 534.84 260.205 533.688L262.845 527.832C264.285 528.888 265.997 529.736 267.981 530.376C269.965 531.016 271.949 531.336 273.933 531.336C276.141 531.336 277.773 531.016 278.829 530.376C279.885 529.704 280.413 528.824 280.413 527.736C280.413 526.936 280.093 526.28 279.453 525.768C278.845 525.224 278.045 524.792 277.053 524.472C276.093 524.152 274.781 523.8 273.117 523.416C270.557 522.808 268.461 522.2 266.829 521.592C265.197 520.984 263.789 520.008 262.605 518.664C261.453 517.32 260.877 515.528 260.877 513.288C260.877 511.336 261.405 509.576 262.461 508.008C263.517 506.408 265.101 505.144 267.213 504.216C269.357 503.288 271.965 502.824 275.037 502.824C277.181 502.824 279.277 503.08 281.325 503.592C283.373 504.104 285.165 504.84 286.701 505.8L284.301 511.704C281.197 509.944 278.093 509.064 274.989 509.064C272.813 509.064 271.197 509.416 270.141 510.12C269.117 510.824 268.605 511.752 268.605 512.904C268.605 514.056 269.197 514.92 270.381 515.496C271.597 516.04 273.437 516.584 275.901 517.128C278.461 517.736 280.557 518.344 282.189 518.952C283.821 519.56 285.213 520.52 286.365 521.832C287.549 523.144 288.141 524.92 288.141 527.16C288.141 529.08 287.597 530.84 286.509 532.44C285.453 534.008 283.853 535.256 281.709 536.184C279.565 537.112 276.957 537.576 273.885 537.576ZM319.182 535.752C318.446 536.296 317.534 536.712 316.446 537C315.39 537.256 314.27 537.384 313.086 537.384C310.014 537.384 307.63 536.6 305.934 535.032C304.27 533.464 303.438 531.16 303.438 528.12V517.512H299.454V511.752H303.438V505.464H310.926V511.752H317.358V517.512H310.926V528.024C310.926 529.112 311.198 529.96 311.742 530.568C312.318 531.144 313.118 531.432 314.142 531.432C315.326 531.432 316.334 531.112 317.166 530.472L319.182 535.752ZM340.138 514.584C341.034 513.336 342.234 512.392 343.738 511.752C345.274 511.112 347.034 510.792 349.018 510.792V517.704C348.186 517.64 347.626 517.608 347.338 517.608C345.194 517.608 343.514 518.216 342.298 519.432C341.082 520.616 340.474 522.408 340.474 524.808V537H332.986V511.176H340.138V514.584ZM373.345 510.792C377.345 510.792 380.417 511.752 382.561 513.672C384.705 515.56 385.777 518.424 385.777 522.264V537H378.769V533.784C377.361 536.184 374.737 537.384 370.897 537.384C368.913 537.384 367.185 537.048 365.713 536.376C364.273 535.704 363.169 534.776 362.401 533.592C361.633 532.408 361.249 531.064 361.249 529.56C361.249 527.16 362.145 525.272 363.937 523.896C365.761 522.52 368.561 521.832 372.337 521.832H378.289C378.289 520.2 377.793 518.952 376.801 518.088C375.809 517.192 374.321 516.744 372.337 516.744C370.961 516.744 369.601 516.968 368.257 517.416C366.945 517.832 365.825 518.408 364.897 519.144L362.209 513.912C363.617 512.92 365.297 512.152 367.249 511.608C369.233 511.064 371.265 510.792 373.345 510.792ZM372.769 532.344C374.049 532.344 375.185 532.056 376.177 531.48C377.169 530.872 377.873 529.992 378.289 528.84V526.2H373.153C370.081 526.2 368.545 527.208 368.545 529.224C368.545 530.184 368.913 530.952 369.649 531.528C370.417 532.072 371.457 532.344 372.769 532.344ZM418.81 535.752C418.074 536.296 417.162 536.712 416.074 537C415.018 537.256 413.898 537.384 412.714 537.384C409.642 537.384 407.258 536.6 405.562 535.032C403.898 533.464 403.066 531.16 403.066 528.12V517.512H399.082V511.752H403.066V505.464H410.554V511.752H416.986V517.512H410.554V528.024C410.554 529.112 410.826 529.96 411.37 530.568C411.946 531.144 412.746 531.432 413.77 531.432C414.954 531.432 415.962 531.112 416.794 530.472L418.81 535.752ZM457.113 524.184C457.113 524.28 457.065 524.952 456.969 526.2H437.433C437.785 527.8 438.617 529.064 439.929 529.992C441.241 530.92 442.873 531.384 444.825 531.384C446.169 531.384 447.353 531.192 448.377 530.808C449.433 530.392 450.409 529.752 451.305 528.888L455.289 533.208C452.857 535.992 449.305 537.384 444.633 537.384C441.721 537.384 439.145 536.824 436.905 535.704C434.665 534.552 432.937 532.968 431.721 530.952C430.505 528.936 429.897 526.648 429.897 524.088C429.897 521.56 430.489 519.288 431.673 517.272C432.889 515.224 434.537 513.64 436.617 512.52C438.729 511.368 441.081 510.792 443.673 510.792C446.201 510.792 448.489 511.336 450.537 512.424C452.585 513.512 454.185 515.08 455.337 517.128C456.521 519.144 457.113 521.496 457.113 524.184ZM443.721 516.456C442.025 516.456 440.601 516.936 439.449 517.896C438.297 518.856 437.593 520.168 437.337 521.832H450.057C449.801 520.2 449.097 518.904 447.945 517.944C446.793 516.952 445.385 516.456 443.721 516.456ZM498.338 511.176V532.68C498.338 537.416 497.106 540.936 494.642 543.24C492.178 545.544 488.578 546.696 483.842 546.696C481.346 546.696 478.978 546.392 476.738 545.784C474.498 545.176 472.642 544.296 471.17 543.144L474.146 537.768C475.234 538.664 476.61 539.368 478.274 539.88C479.938 540.424 481.602 540.696 483.266 540.696C485.858 540.696 487.762 540.104 488.978 538.92C490.226 537.768 490.85 536.008 490.85 533.64V532.536C488.898 534.68 486.178 535.752 482.69 535.752C480.322 535.752 478.146 535.24 476.162 534.216C474.21 533.16 472.658 531.688 471.506 529.8C470.354 527.912 469.778 525.736 469.778 523.272C469.778 520.808 470.354 518.632 471.506 516.744C472.658 514.856 474.21 513.4 476.162 512.376C478.146 511.32 480.322 510.792 482.69 510.792C486.434 510.792 489.282 512.024 491.234 514.488V511.176H498.338ZM484.178 529.608C486.162 529.608 487.778 529.032 489.026 527.88C490.306 526.696 490.946 525.16 490.946 523.272C490.946 521.384 490.306 519.864 489.026 518.712C487.778 517.528 486.162 516.936 484.178 516.936C482.194 516.936 480.562 517.528 479.282 518.712C478.002 519.864 477.362 521.384 477.362 523.272C477.362 525.16 478.002 526.696 479.282 527.88C480.562 529.032 482.194 529.608 484.178 529.608ZM540.54 511.176L528.876 538.584C527.692 541.56 526.22 543.656 524.46 544.872C522.732 546.088 520.636 546.696 518.172 546.696C516.828 546.696 515.5 546.488 514.188 546.072C512.876 545.656 511.804 545.08 510.972 544.344L513.708 539.016C514.284 539.528 514.94 539.928 515.676 540.216C516.444 540.504 517.196 540.648 517.932 540.648C518.956 540.648 519.788 540.392 520.428 539.88C521.068 539.4 521.644 538.584 522.156 537.432L522.252 537.192L511.068 511.176H518.796L526.044 528.696L533.34 511.176H540.54Z" fill="white"/>
<rect y="300" width="650" height="150" fill="#46D2CE"/>
<path d="M206.648 353.4H221.912C225.56 353.4 228.776 354.104 231.56 355.512C234.376 356.888 236.552 358.84 238.088 361.368C239.656 363.896 240.44 366.84 240.44 370.2C240.44 373.56 239.656 376.504 238.088 379.032C236.552 381.56 234.376 383.528 231.56 384.936C228.776 386.312 225.56 387 221.912 387H206.648V353.4ZM221.528 380.616C224.888 380.616 227.56 379.688 229.544 377.832C231.56 375.944 232.568 373.4 232.568 370.2C232.568 367 231.56 364.472 229.544 362.616C227.56 360.728 224.888 359.784 221.528 359.784H214.424V380.616H221.528ZM280.672 374.184C280.672 374.28 280.624 374.952 280.528 376.2H260.992C261.344 377.8 262.176 379.064 263.488 379.992C264.8 380.92 266.432 381.384 268.384 381.384C269.728 381.384 270.912 381.192 271.936 380.808C272.992 380.392 273.968 379.752 274.864 378.888L278.848 383.208C276.416 385.992 272.864 387.384 268.192 387.384C265.28 387.384 262.704 386.824 260.464 385.704C258.224 384.552 256.496 382.968 255.28 380.952C254.064 378.936 253.456 376.648 253.456 374.088C253.456 371.56 254.048 369.288 255.232 367.272C256.448 365.224 258.096 363.64 260.176 362.52C262.288 361.368 264.64 360.792 267.232 360.792C269.76 360.792 272.048 361.336 274.096 362.424C276.144 363.512 277.744 365.08 278.896 367.128C280.08 369.144 280.672 371.496 280.672 374.184ZM267.28 366.456C265.584 366.456 264.16 366.936 263.008 367.896C261.856 368.856 261.152 370.168 260.896 371.832H273.616C273.36 370.2 272.656 368.904 271.504 367.944C270.352 366.952 268.944 366.456 267.28 366.456ZM303.946 387.384C301.802 387.384 299.706 387.128 297.658 386.616C295.61 386.072 293.978 385.4 292.762 384.6L295.258 379.224C296.41 379.96 297.802 380.568 299.434 381.048C301.066 381.496 302.666 381.72 304.234 381.72C307.402 381.72 308.986 380.936 308.986 379.368C308.986 378.632 308.554 378.104 307.69 377.784C306.826 377.464 305.498 377.192 303.706 376.968C301.594 376.648 299.85 376.28 298.474 375.864C297.098 375.448 295.898 374.712 294.874 373.656C293.882 372.6 293.386 371.096 293.386 369.144C293.386 367.512 293.85 366.072 294.778 364.824C295.738 363.544 297.114 362.552 298.906 361.848C300.73 361.144 302.874 360.792 305.338 360.792C307.162 360.792 308.97 361 310.762 361.416C312.586 361.8 314.09 362.344 315.274 363.048L312.778 368.376C310.506 367.096 308.026 366.456 305.338 366.456C303.738 366.456 302.538 366.68 301.738 367.128C300.938 367.576 300.538 368.152 300.538 368.856C300.538 369.656 300.97 370.216 301.834 370.536C302.698 370.856 304.074 371.16 305.962 371.448C308.074 371.8 309.802 372.184 311.146 372.6C312.49 372.984 313.658 373.704 314.65 374.76C315.642 375.816 316.138 377.288 316.138 379.176C316.138 380.776 315.658 382.2 314.698 383.448C313.738 384.696 312.33 385.672 310.474 386.376C308.65 387.048 306.474 387.384 303.946 387.384ZM330.358 361.176H337.846V387H330.358V361.176ZM334.102 357.576C332.726 357.576 331.606 357.176 330.742 356.376C329.878 355.576 329.446 354.584 329.446 353.4C329.446 352.216 329.878 351.224 330.742 350.424C331.606 349.624 332.726 349.224 334.102 349.224C335.478 349.224 336.598 349.608 337.462 350.376C338.326 351.144 338.758 352.104 338.758 353.256C338.758 354.504 338.326 355.544 337.462 356.376C336.598 357.176 335.478 357.576 334.102 357.576ZM381.035 361.176V382.68C381.035 387.416 379.803 390.936 377.339 393.24C374.875 395.544 371.275 396.696 366.539 396.696C364.043 396.696 361.675 396.392 359.435 395.784C357.195 395.176 355.339 394.296 353.867 393.144L356.843 387.768C357.931 388.664 359.307 389.368 360.971 389.88C362.635 390.424 364.299 390.696 365.963 390.696C368.555 390.696 370.459 390.104 371.675 388.92C372.923 387.768 373.547 386.008 373.547 383.64V382.536C371.595 384.68 368.875 385.752 365.387 385.752C363.019 385.752 360.843 385.24 358.859 384.216C356.907 383.16 355.355 381.688 354.203 379.8C353.051 377.912 352.475 375.736 352.475 373.272C352.475 370.808 353.051 368.632 354.203 366.744C355.355 364.856 356.907 363.4 358.859 362.376C360.843 361.32 363.019 360.792 365.387 360.792C369.131 360.792 371.979 362.024 373.931 364.488V361.176H381.035ZM366.875 379.608C368.859 379.608 370.475 379.032 371.723 377.88C373.003 376.696 373.643 375.16 373.643 373.272C373.643 371.384 373.003 369.864 371.723 368.712C370.475 367.528 368.859 366.936 366.875 366.936C364.891 366.936 363.259 367.528 361.979 368.712C360.699 369.864 360.059 371.384 360.059 373.272C360.059 375.16 360.699 376.696 361.979 377.88C363.259 379.032 364.891 379.608 366.875 379.608ZM413.3 360.792C416.5 360.792 419.076 361.752 421.028 363.672C423.012 365.592 424.004 368.44 424.004 372.216V387H416.516V373.368C416.516 371.32 416.068 369.8 415.172 368.808C414.276 367.784 412.98 367.272 411.284 367.272C409.396 367.272 407.892 367.864 406.772 369.048C405.652 370.2 405.092 371.928 405.092 374.232V387H397.604V361.176H404.756V364.2C405.748 363.112 406.98 362.28 408.452 361.704C409.924 361.096 411.54 360.792 413.3 360.792Z" fill="white"/>
<rect x="150" y="150" width="650" height="150" fill="#F1906F"/>
<path d="M301.631 213.4H309.407V247H301.631V213.4ZM359.525 220.792C362.757 220.792 365.317 221.752 367.205 223.672C369.125 225.56 370.085 228.408 370.085 232.216V247H362.597V233.368C362.597 231.32 362.165 229.8 361.301 228.808C360.469 227.784 359.269 227.272 357.701 227.272C355.941 227.272 354.549 227.848 353.525 229C352.501 230.12 351.989 231.8 351.989 234.04V247H344.501V233.368C344.501 229.304 342.869 227.272 339.605 227.272C337.877 227.272 336.501 227.848 335.477 229C334.453 230.12 333.941 231.8 333.941 234.04V247H326.453V221.176H333.605V224.152C334.565 223.064 335.733 222.232 337.109 221.656C338.517 221.08 340.053 220.792 341.717 220.792C343.541 220.792 345.189 221.16 346.661 221.896C348.133 222.6 349.317 223.64 350.213 225.016C351.269 223.672 352.597 222.632 354.197 221.896C355.829 221.16 357.605 220.792 359.525 220.792ZM401.661 220.792C404.061 220.792 406.237 221.352 408.189 222.472C410.173 223.56 411.725 225.112 412.845 227.128C413.965 229.112 414.525 231.432 414.525 234.088C414.525 236.744 413.965 239.08 412.845 241.096C411.725 243.08 410.173 244.632 408.189 245.752C406.237 246.84 404.061 247.384 401.661 247.384C398.365 247.384 395.773 246.344 393.885 244.264V256.312H386.397V221.176H393.549V224.152C395.405 221.912 398.109 220.792 401.661 220.792ZM400.365 241.24C402.285 241.24 403.853 240.6 405.069 239.32C406.317 238.008 406.941 236.264 406.941 234.088C406.941 231.912 406.317 230.184 405.069 228.904C403.853 227.592 402.285 226.936 400.365 226.936C398.445 226.936 396.861 227.592 395.613 228.904C394.397 230.184 393.789 231.912 393.789 234.088C393.789 236.264 394.397 238.008 395.613 239.32C396.861 240.6 398.445 241.24 400.365 241.24ZM429.137 211.384H436.625V247H429.137V211.384ZM478.471 234.184C478.471 234.28 478.423 234.952 478.327 236.2H458.791C459.143 237.8 459.975 239.064 461.287 239.992C462.599 240.92 464.231 241.384 466.183 241.384C467.527 241.384 468.711 241.192 469.735 240.808C470.791 240.392 471.767 239.752 472.663 238.888L476.647 243.208C474.215 245.992 470.663 247.384 465.991 247.384C463.079 247.384 460.503 246.824 458.263 245.704C456.023 244.552 454.295 242.968 453.079 240.952C451.863 238.936 451.255 236.648 451.255 234.088C451.255 231.56 451.847 229.288 453.031 227.272C454.247 225.224 455.895 223.64 457.975 222.52C460.087 221.368 462.439 220.792 465.031 220.792C467.559 220.792 469.847 221.336 471.895 222.424C473.943 223.512 475.543 225.08 476.695 227.128C477.879 229.144 478.471 231.496 478.471 234.184ZM465.079 226.456C463.383 226.456 461.959 226.936 460.807 227.896C459.655 228.856 458.951 230.168 458.695 231.832H471.415C471.159 230.2 470.455 228.904 469.303 227.944C468.151 226.952 466.743 226.456 465.079 226.456ZM526.128 220.792C529.36 220.792 531.92 221.752 533.808 223.672C535.728 225.56 536.688 228.408 536.688 232.216V247H529.2V233.368C529.2 231.32 528.768 229.8 527.904 228.808C527.072 227.784 525.872 227.272 524.304 227.272C522.544 227.272 521.152 227.848 520.128 229C519.104 230.12 518.592 231.8 518.592 234.04V247H511.104V233.368C511.104 229.304 509.472 227.272 506.208 227.272C504.48 227.272 503.104 227.848 502.08 229C501.056 230.12 500.544 231.8 500.544 234.04V247H493.056V221.176H500.208V224.152C501.168 223.064 502.336 222.232 503.712 221.656C505.12 221.08 506.656 220.792 508.32 220.792C510.144 220.792 511.792 221.16 513.264 221.896C514.736 222.6 515.92 223.64 516.816 225.016C517.872 223.672 519.2 222.632 520.8 221.896C522.432 221.16 524.208 220.792 526.128 220.792ZM578.577 234.184C578.577 234.28 578.529 234.952 578.433 236.2H558.897C559.249 237.8 560.081 239.064 561.393 239.992C562.705 240.92 564.337 241.384 566.289 241.384C567.633 241.384 568.817 241.192 569.841 240.808C570.897 240.392 571.873 239.752 572.769 238.888L576.753 243.208C574.321 245.992 570.769 247.384 566.097 247.384C563.185 247.384 560.609 246.824 558.369 245.704C556.129 244.552 554.401 242.968 553.185 240.952C551.969 238.936 551.361 236.648 551.361 234.088C551.361 231.56 551.953 229.288 553.137 227.272C554.353 225.224 556.001 223.64 558.081 222.52C560.193 221.368 562.545 220.792 565.137 220.792C567.665 220.792 569.953 221.336 572.001 222.424C574.049 223.512 575.649 225.08 576.801 227.128C577.985 229.144 578.577 231.496 578.577 234.184ZM565.185 226.456C563.489 226.456 562.065 226.936 560.913 227.896C559.761 228.856 559.057 230.168 558.801 231.832H571.521C571.265 230.2 570.561 228.904 569.409 227.944C568.257 226.952 566.849 226.456 565.185 226.456ZM608.858 220.792C612.058 220.792 614.634 221.752 616.586 223.672C618.57 225.592 619.562 228.44 619.562 232.216V247H612.074V233.368C612.074 231.32 611.626 229.8 610.73 228.808C609.834 227.784 608.538 227.272 606.842 227.272C604.954 227.272 603.45 227.864 602.33 229.048C601.21 230.2 600.65 231.928 600.65 234.232V247H593.162V221.176H600.314V224.2C601.306 223.112 602.538 222.28 604.01 221.704C605.482 221.096 607.098 220.792 608.858 220.792ZM652.606 245.752C651.87 246.296 650.958 246.712 649.87 247C648.814 247.256 647.694 247.384 646.51 247.384C643.438 247.384 641.054 246.6 639.358 245.032C637.694 243.464 636.862 241.16 636.862 238.12V227.512H632.878V221.752H636.862V215.464H644.35V221.752H650.782V227.512H644.35V238.024C644.35 239.112 644.622 239.96 645.166 240.568C645.742 241.144 646.542 241.432 647.566 241.432C648.75 241.432 649.758 241.112 650.59 240.472L652.606 245.752Z" fill="white"/>
<rect x="75" width="650" height="150" fill="#86B9B0"/>
<path d="M285.958 88.576C283.302 88.576 280.726 88.224 278.23 87.52C275.766 86.784 273.782 85.84 272.278 84.688L274.918 78.832C276.358 79.888 278.07 80.736 280.054 81.376C282.038 82.016 284.022 82.336 286.006 82.336C288.214 82.336 289.846 82.016 290.902 81.376C291.958 80.704 292.486 79.824 292.486 78.736C292.486 77.936 292.166 77.28 291.526 76.768C290.918 76.224 290.118 75.792 289.126 75.472C288.166 75.152 286.854 74.8 285.19 74.416C282.63 73.808 280.534 73.2 278.902 72.592C277.27 71.984 275.862 71.008 274.678 69.664C273.526 68.32 272.95 66.528 272.95 64.288C272.95 62.336 273.478 60.576 274.534 59.008C275.59 57.408 277.174 56.144 279.286 55.216C281.43 54.288 284.038 53.824 287.11 53.824C289.254 53.824 291.35 54.08 293.398 54.592C295.446 55.104 297.238 55.84 298.774 56.8L296.374 62.704C293.27 60.944 290.166 60.064 287.062 60.064C284.886 60.064 283.27 60.416 282.214 61.12C281.19 61.824 280.678 62.752 280.678 63.904C280.678 65.056 281.27 65.92 282.454 66.496C283.67 67.04 285.51 67.584 287.974 68.128C290.534 68.736 292.63 69.344 294.262 69.952C295.894 70.56 297.286 71.52 298.438 72.832C299.622 74.144 300.214 75.92 300.214 78.16C300.214 80.08 299.67 81.84 298.582 83.44C297.526 85.008 295.926 86.256 293.782 87.184C291.638 88.112 289.03 88.576 285.958 88.576ZM340.616 62.176V88H333.512V84.928C332.52 86.048 331.336 86.912 329.96 87.52C328.584 88.096 327.096 88.384 325.496 88.384C322.104 88.384 319.416 87.408 317.432 85.456C315.448 83.504 314.456 80.608 314.456 76.768V62.176H321.944V75.664C321.944 79.824 323.688 81.904 327.176 81.904C328.968 81.904 330.408 81.328 331.496 80.176C332.584 78.992 333.128 77.248 333.128 74.944V62.176H340.616ZM372.417 61.792C374.817 61.792 376.993 62.352 378.945 63.472C380.929 64.56 382.481 66.112 383.601 68.128C384.721 70.112 385.281 72.432 385.281 75.088C385.281 77.744 384.721 80.08 383.601 82.096C382.481 84.08 380.929 85.632 378.945 86.752C376.993 87.84 374.817 88.384 372.417 88.384C369.121 88.384 366.529 87.344 364.641 85.264V97.312H357.153V62.176H364.305V65.152C366.161 62.912 368.865 61.792 372.417 61.792ZM371.121 82.24C373.041 82.24 374.609 81.6 375.825 80.32C377.073 79.008 377.697 77.264 377.697 75.088C377.697 72.912 377.073 71.184 375.825 69.904C374.609 68.592 373.041 67.936 371.121 67.936C369.201 67.936 367.617 68.592 366.369 69.904C365.153 71.184 364.545 72.912 364.545 75.088C364.545 77.264 365.153 79.008 366.369 80.32C367.617 81.6 369.201 82.24 371.121 82.24ZM415.158 61.792C417.558 61.792 419.734 62.352 421.686 63.472C423.67 64.56 425.222 66.112 426.342 68.128C427.462 70.112 428.022 72.432 428.022 75.088C428.022 77.744 427.462 80.08 426.342 82.096C425.222 84.08 423.67 85.632 421.686 86.752C419.734 87.84 417.558 88.384 415.158 88.384C411.862 88.384 409.27 87.344 407.382 85.264V97.312H399.894V62.176H407.046V65.152C408.902 62.912 411.606 61.792 415.158 61.792ZM413.862 82.24C415.782 82.24 417.35 81.6 418.566 80.32C419.814 79.008 420.438 77.264 420.438 75.088C420.438 72.912 419.814 71.184 418.566 69.904C417.35 68.592 415.782 67.936 413.862 67.936C411.942 67.936 410.358 68.592 409.109 69.904C407.894 71.184 407.286 72.912 407.286 75.088C407.286 77.264 407.894 79.008 409.109 80.32C410.358 81.6 411.942 82.24 413.862 82.24ZM454.922 88.384C452.202 88.384 449.754 87.824 447.578 86.704C445.434 85.552 443.754 83.968 442.538 81.952C441.322 79.936 440.714 77.648 440.714 75.088C440.714 72.528 441.322 70.24 442.538 68.224C443.754 66.208 445.434 64.64 447.578 63.52C449.754 62.368 452.202 61.792 454.922 61.792C457.642 61.792 460.074 62.368 462.218 63.52C464.362 64.64 466.042 66.208 467.258 68.224C468.474 70.24 469.082 72.528 469.082 75.088C469.082 77.648 468.474 79.936 467.258 81.952C466.042 83.968 464.362 85.552 462.218 86.704C460.074 87.824 457.642 88.384 454.922 88.384ZM454.922 82.24C456.842 82.24 458.41 81.6 459.626 80.32C460.874 79.008 461.498 77.264 461.498 75.088C461.498 72.912 460.874 71.184 459.626 69.904C458.41 68.592 456.842 67.936 454.922 67.936C453.002 67.936 451.418 68.592 450.17 69.904C448.922 71.184 448.298 72.912 448.298 75.088C448.298 77.264 448.922 79.008 450.17 80.32C451.418 81.6 453.002 82.24 454.922 82.24ZM490.839 65.584C491.735 64.336 492.935 63.392 494.439 62.752C495.975 62.112 497.735 61.792 499.719 61.792V68.704C498.887 68.64 498.327 68.608 498.039 68.608C495.895 68.608 494.215 69.216 492.999 70.432C491.783 71.616 491.175 73.408 491.175 75.808V88H483.687V62.176H490.839V65.584ZM531.318 86.752C530.582 87.296 529.67 87.712 528.582 88C527.526 88.256 526.406 88.384 525.222 88.384C522.15 88.384 519.766 87.6 518.07 86.032C516.406 84.464 515.574 82.16 515.574 79.12V68.512H511.59V62.752H515.574V56.464H523.062V62.752H529.494V68.512H523.062V79.024C523.062 80.112 523.334 80.96 523.878 81.568C524.454 82.144 525.254 82.432 526.278 82.432C527.462 82.432 528.47 82.112 529.302 81.472L531.318 86.752Z" fill="white"/>
</svg>
