<svg width="800" height="600" viewBox="0 0 800 600" fill="none" xmlns="http://www.w3.org/2000/svg">
<rect width="800" height="600" fill="#C3DE8F"/>
<rect x="75" y="450" width="650" height="150" fill="#5770A8"/>
<path d="M273.885 537.576C271.229 537.576 268.653 537.224 266.157 536.52C263.693 535.784 261.709 534.84 260.205 533.688L262.845 527.832C264.285 528.888 265.997 529.736 267.981 530.376C269.965 531.016 271.949 531.336 273.933 531.336C276.141 531.336 277.773 531.016 278.829 530.376C279.885 529.704 280.413 528.824 280.413 527.736C280.413 526.936 280.093 526.28 279.453 525.768C278.845 525.224 278.045 524.792 277.053 524.472C276.093 524.152 274.781 523.8 273.117 523.416C270.557 522.808 268.461 522.2 266.829 521.592C265.197 520.984 263.789 520.008 262.605 518.664C261.453 517.32 260.877 515.528 260.877 513.288C260.877 511.336 261.405 509.576 262.461 508.008C263.517 506.408 265.101 505.144 267.213 504.216C269.357 503.288 271.965 502.824 275.037 502.824C277.181 502.824 279.277 503.08 281.325 503.592C283.373 504.104 285.165 504.84 286.701 505.8L284.301 511.704C281.197 509.944 278.093 509.064 274.989 509.064C272.813 509.064 271.197 509.416 270.141 510.12C269.117 510.824 268.605 511.752 268.605 512.904C268.605 514.056 269.197 514.92 270.381 515.496C271.597 516.04 273.437 516.584 275.901 517.128C278.461 517.736 280.557 518.344 282.189 518.952C283.821 519.56 285.213 520.52 286.365 521.832C287.549 523.144 288.141 524.92 288.141 527.16C288.141 529.08 287.597 530.84 286.509 532.44C285.453 534.008 283.853 535.256 281.709 536.184C279.565 537.112 276.957 537.576 273.885 537.576ZM319.182 535.752C318.446 536.296 317.534 536.712 316.446 537C315.39 537.256 314.27 537.384 313.086 537.384C310.014 537.384 307.63 536.6 305.934 535.032C304.27 533.464 303.438 531.16 303.438 528.12V517.512H299.454V511.752H303.438V505.464H310.926V511.752H317.358V517.512H310.926V528.024C310.926 529.112 311.198 529.96 311.742 530.568C312.318 531.144 313.118 531.432 314.142 531.432C315.326 531.432 316.334 531.112 317.166 530.472L319.182 535.752ZM340.138 514.584C341.034 513.336 342.234 512.392 343.738 511.752C345.274 511.112 347.034 510.792 349.018 510.792V517.704C348.186 517.64 347.626 517.608 347.338 517.608C345.194 517.608 343.514 518.216 342.298 519.432C341.082 520.616 340.474 522.408 340.474 524.808V537H332.986V511.176H340.138V514.584ZM373.345 510.792C377.345 510.792 380.417 511.752 382.561 513.672C384.705 515.56 385.777 518.424 385.777 522.264V537H378.769V533.784C377.361 536.184 374.737 537.384 370.897 537.384C368.913 537.384 367.185 537.048 365.713 536.376C364.273 535.704 363.169 534.776 362.401 533.592C361.633 532.408 361.249 531.064 361.249 529.56C361.249 527.16 362.145 525.272 363.937 523.896C365.761 522.52 368.561 521.832 372.337 521.832H378.289C378.289 520.2 377.793 518.952 376.801 518.088C375.809 517.192 374.321 516.744 372.337 516.744C370.961 516.744 369.601 516.968 368.257 517.416C366.945 517.832 365.825 518.408 364.897 519.144L362.209 513.912C363.617 512.92 365.297 512.152 367.249 511.608C369.233 511.064 371.265 510.792 373.345 510.792ZM372.769 532.344C374.049 532.344 375.185 532.056 376.177 531.48C377.169 530.872 377.873 529.992 378.289 528.84V526.2H373.153C370.081 526.2 368.545 527.208 368.545 529.224C368.545 530.184 368.913 530.952 369.649 531.528C370.417 532.072 371.457 532.344 372.769 532.344ZM418.81 535.752C418.074 536.296 417.162 536.712 416.074 537C415.018 537.256 413.898 537.384 412.714 537.384C409.642 537.384 407.258 536.6 405.562 535.032C403.898 533.464 403.066 531.16 403.066 528.12V517.512H399.082V511.752H403.066V505.464H410.554V511.752H416.986V517.512H410.554V528.024C410.554 529.112 410.826 529.96 411.37 530.568C411.946 531.144 412.746 531.432 413.77 531.432C414.954 531.432 415.962 531.112 416.794 530.472L418.81 535.752ZM457.113 524.184C457.113 524.28 457.065 524.952 456.969 526.2H437.433C437.785 527.8 438.617 529.064 439.929 529.992C441.241 530.92 442.873 531.384 444.825 531.384C446.169 531.384 447.353 531.192 448.377 530.808C449.433 530.392 450.409 529.752 451.305 528.888L455.289 533.208C452.857 535.992 449.305 537.384 444.633 537.384C441.721 537.384 439.145 536.824 436.905 535.704C434.665 534.552 432.937 532.968 431.721 530.952C430.505 528.936 429.897 526.648 429.897 524.088C429.897 521.56 430.489 519.288 431.673 517.272C432.889 515.224 434.537 513.64 436.617 512.52C438.729 511.368 441.081 510.792 443.673 510.792C446.201 510.792 448.489 511.336 450.537 512.424C452.585 513.512 454.185 515.08 455.337 517.128C456.521 519.144 457.113 521.496 457.113 524.184ZM443.721 516.456C442.025 516.456 440.601 516.936 439.449 517.896C438.297 518.856 437.593 520.168 437.337 521.832H450.057C449.801 520.2 449.097 518.904 447.945 517.944C446.793 516.952 445.385 516.456 443.721 516.456ZM498.338 511.176V532.68C498.338 537.416 497.106 540.936 494.642 543.24C492.178 545.544 488.578 546.696 483.842 546.696C481.346 546.696 478.978 546.392 476.738 545.784C474.498 545.176 472.642 544.296 471.17 543.144L474.146 537.768C475.234 538.664 476.61 539.368 478.274 539.88C479.938 540.424 481.602 540.696 483.266 540.696C485.858 540.696 487.762 540.104 488.978 538.92C490.226 537.768 490.85 536.008 490.85 533.64V532.536C488.898 534.68 486.178 535.752 482.69 535.752C480.322 535.752 478.146 535.24 476.162 534.216C474.21 533.16 472.658 531.688 471.506 529.8C470.354 527.912 469.778 525.736 469.778 523.272C469.778 520.808 470.354 518.632 471.506 516.744C472.658 514.856 474.21 513.4 476.162 512.376C478.146 511.32 480.322 510.792 482.69 510.792C486.434 510.792 489.282 512.024 491.234 514.488V511.176H498.338ZM484.178 529.608C486.162 529.608 487.778 529.032 489.026 527.88C490.306 526.696 490.946 525.16 490.946 523.272C490.946 521.384 490.306 519.864 489.026 518.712C487.778 517.528 486.162 516.936 484.178 516.936C482.194 516.936 480.562 517.528 479.282 518.712C478.002 519.864 477.362 521.384 477.362 523.272C477.362 525.16 478.002 526.696 479.282 527.88C480.562 529.032 482.194 529.608 484.178 529.608ZM540.54 511.176L528.876 538.584C527.692 541.56 526.22 543.656 524.46 544.872C522.732 546.088 520.636 546.696 518.172 546.696C516.828 546.696 515.5 546.488 514.188 546.072C512.876 545.656 511.804 545.08 510.972 544.344L513.708 539.016C514.284 539.528 514.94 539.928 515.676 540.216C516.444 540.504 517.196 540.648 517.932 540.648C518.956 540.648 519.788 540.392 520.428 539.88C521.068 539.4 521.644 538.584 522.156 537.432L522.252 537.192L511.068 511.176H518.796L526.044 528.696L533.34 511.176H540.54Z" fill="white"/>
<rect y="300" width="650" height="150" fill="#46D2CE"/>
<path d="M206.648 353.4H221.912C225.56 353.4 228.776 354.104 231.56 355.512C234.376 356.888 236.552 358.84 238.088 361.368C239.656 363.896 240.44 366.84 240.44 370.2C240.44 373.56 239.656 376.504 238.088 379.032C236.552 381.56 234.376 383.528 231.56 384.936C228.776 386.312 225.56 387 221.912 387H206.648V353.4ZM221.528 380.616C224.888 380.616 227.56 379.688 229.544 377.832C231.56 375.944 232.568 373.4 232.568 370.2C232.568 367 231.56 364.472 229.544 362.616C227.56 360.728 224.888 359.784 221.528 359.784H214.424V380.616H221.528ZM280.672 374.184C280.672 374.28 280.624 374.952 280.528 376.2H260.992C261.344 377.8 262.176 379.064 263.488 379.992C264.8 380.92 266.432 381.384 268.384 381.384C269.728 381.384 270.912 381.192 271.936 380.808C272.992 380.392 273.968 379.752 274.864 378.888L278.848 383.208C276.416 385.992 272.864 387.384 268.192 387.384C265.28 387.384 262.704 386.824 260.464 385.704C258.224 384.552 256.496 382.968 255.28 380.952C254.064 378.936 253.456 376.648 253.456 374.088C253.456 371.56 254.048 369.288 255.232 367.272C256.448 365.224 258.096 363.64 260.176 362.52C262.288 361.368 264.64 360.792 267.232 360.792C269.76 360.792 272.048 361.336 274.096 362.424C276.144 363.512 277.744 365.08 278.896 367.128C280.08 369.144 280.672 371.496 280.672 374.184ZM267.28 366.456C265.584 366.456 264.16 366.936 263.008 367.896C261.856 368.856 261.152 370.168 260.896 371.832H273.616C273.36 370.2 272.656 368.904 271.504 367.944C270.352 366.952 268.944 366.456 267.28 366.456ZM303.946 387.384C301.802 387.384 299.706 387.128 297.658 386.616C295.61 386.072 293.978 385.4 292.762 384.6L295.258 379.224C296.41 379.96 297.802 380.568 299.434 381.048C301.066 381.496 302.666 381.72 304.234 381.72C307.402 381.72 308.986 380.936 308.986 379.368C308.986 378.632 308.554 378.104 307.69 377.784C306.826 377.464 305.498 377.192 303.706 376.968C301.594 376.648 299.85 376.28 298.474 375.864C297.098 375.448 295.898 374.712 294.874 373.656C293.882 372.6 293.386 371.096 293.386 369.144C293.386 367.512 293.85 366.072 294.778 364.824C295.738 363.544 297.114 362.552 298.906 361.848C300.73 361.144 302.874 360.792 305.338 360.792C307.162 360.792 308.97 361 310.762 361.416C312.586 361.8 314.09 362.344 315.274 363.048L312.778 368.376C310.506 367.096 308.026 366.456 305.338 366.456C303.738 366.456 302.538 366.68 301.738 367.128C300.938 367.576 300.538 368.152 300.538 368.856C300.538 369.656 300.97 370.216 301.834 370.536C302.698 370.856 304.074 371.16 305.962 371.448C308.074 371.8 309.802 372.184 311.146 372.6C312.49 372.984 313.658 373.704 314.65 374.76C315.642 375.816 316.138 377.288 316.138 379.176C316.138 380.776 315.658 382.2 314.698 383.448C313.738 384.696 312.33 385.672 310.474 386.376C308.65 387.048 306.474 387.384 303.946 387.384ZM330.358 361.176H337.846V387H330.358V361.176ZM334.102 357.576C332.726 357.576 331.606 357.176 330.742 356.376C329.878 355.576 329.446 354.584 329.446 353.4C329.446 352.216 329.878 351.224 330.742 350.424C331.606 349.624 332.726 349.224 334.102 349.224C335.478 349.224 336.598 349.608 337.462 350.376C338.326 351.144 338.758 352.104 338.758 353.256C338.758 354.504 338.326 355.544 337.462 356.376C336.598 357.176 335.478 357.576 334.102 357.576ZM381.035 361.176V382.68C381.035 387.416 379.803 390.936 377.339 393.24C374.875 395.544 371.275 396.696 366.539 396.696C364.043 396.696 361.675 396.392 359.435 395.784C357.195 395.176 355.339 394.296 353.867 393.144L356.843 387.768C357.931 388.664 359.307 389.368 360.971 389.88C362.635 390.424 364.299 390.696 365.963 390.696C368.555 390.696 370.459 390.104 371.675 388.92C372.923 387.768 373.547 386.008 373.547 383.64V382.536C371.595 384.68 368.875 385.752 365.387 385.752C363.019 385.752 360.843 385.24 358.859 384.216C356.907 383.16 355.355 381.688 354.203 379.8C353.051 377.912 352.475 375.736 352.475 373.272C352.475 370.808 353.051 368.632 354.203 366.744C355.355 364.856 356.907 363.4 358.859 362.376C360.843 361.32 363.019 360.792 365.387 360.792C369.131 360.792 371.979 362.024 373.931 364.488V361.176H381.035ZM366.875 379.608C368.859 379.608 370.475 379.032 371.723 377.88C373.003 376.696 373.643 375.16 373.643 373.272C373.643 371.384 373.003 369.864 371.723 368.712C370.475 367.528 368.859 366.936 366.875 366.936C364.891 366.936 363.259 367.528 361.979 368.712C360.699 369.864 360.059 371.384 360.059 373.272C360.059 375.16 360.699 376.696 361.979 377.88C363.259 379.032 364.891 379.608 366.875 379.608ZM413.3 360.792C416.5 360.792 419.076 361.752 421.028 363.672C423.012 365.592 424.004 368.44 424.004 372.216V387H416.516V373.368C416.516 371.32 416.068 369.8 415.172 368.808C414.276 367.784 412.98 367.272 411.284 367.272C409.396 367.272 407.892 367.864 406.772 369.048C405.652 370.2 405.092 371.928 405.092 374.232V387H397.604V361.176H404.756V364.2C405.748 363.112 406.98 362.28 408.452 361.704C409.924 361.096 411.54 360.792 413.3 360.792Z" fill="white"/>
<rect x="150" y="150" width="650" height="150" fill="#F1906F"/>
<path d="M212.85 213.4H220.626V247H212.85V213.4ZM270.744 220.792C273.976 220.792 276.536 221.752 278.424 223.672C280.344 225.56 281.304 228.408 281.304 232.216V247H273.816V233.368C273.816 231.32 273.384 229.8 272.52 228.808C271.688 227.784 270.488 227.272 268.92 227.272C267.16 227.272 265.768 227.848 264.744 229C263.72 230.12 263.208 231.8 263.208 234.04V247H255.72V233.368C255.72 229.304 254.088 227.272 250.824 227.272C249.096 227.272 247.72 227.848 246.696 229C245.672 230.12 245.16 231.8 245.16 234.04V247H237.672V221.176H244.824V224.152C245.784 223.064 246.952 222.232 248.328 221.656C249.736 221.08 251.272 220.792 252.936 220.792C254.76 220.792 256.408 221.16 257.88 221.896C259.352 222.6 260.536 223.64 261.432 225.016C262.488 223.672 263.816 222.632 265.416 221.896C267.048 221.16 268.824 220.792 270.744 220.792ZM312.879 220.792C315.279 220.792 317.455 221.352 319.407 222.472C321.391 223.56 322.943 225.112 324.063 227.128C325.183 229.112 325.743 231.432 325.743 234.088C325.743 236.744 325.183 239.08 324.063 241.096C322.943 243.08 321.391 244.632 319.407 245.752C317.455 246.84 315.279 247.384 312.879 247.384C309.583 247.384 306.991 246.344 305.103 244.264V256.312H297.615V221.176H304.767V224.152C306.623 221.912 309.327 220.792 312.879 220.792ZM311.583 241.24C313.503 241.24 315.071 240.6 316.287 239.32C317.535 238.008 318.159 236.264 318.159 234.088C318.159 231.912 317.535 230.184 316.287 228.904C315.071 227.592 313.503 226.936 311.583 226.936C309.663 226.936 308.079 227.592 306.831 228.904C305.615 230.184 305.007 231.912 305.007 234.088C305.007 236.264 305.615 238.008 306.831 239.32C308.079 240.6 309.663 241.24 311.583 241.24ZM340.356 211.384H347.844V247H340.356V211.384ZM389.69 234.184C389.69 234.28 389.642 234.952 389.546 236.2H370.01C370.362 237.8 371.194 239.064 372.506 239.992C373.818 240.92 375.45 241.384 377.402 241.384C378.746 241.384 379.93 241.192 380.954 240.808C382.01 240.392 382.986 239.752 383.882 238.888L387.866 243.208C385.434 245.992 381.882 247.384 377.21 247.384C374.298 247.384 371.722 246.824 369.482 245.704C367.242 244.552 365.514 242.968 364.298 240.952C363.082 238.936 362.474 236.648 362.474 234.088C362.474 231.56 363.066 229.288 364.25 227.272C365.466 225.224 367.114 223.64 369.194 222.52C371.306 221.368 373.658 220.792 376.25 220.792C378.778 220.792 381.066 221.336 383.114 222.424C385.162 223.512 386.762 225.08 387.914 227.128C389.098 229.144 389.69 231.496 389.69 234.184ZM376.298 226.456C374.602 226.456 373.178 226.936 372.026 227.896C370.874 228.856 370.17 230.168 369.914 231.832H382.634C382.378 230.2 381.674 228.904 380.522 227.944C379.37 226.952 377.962 226.456 376.298 226.456ZM437.347 220.792C440.579 220.792 443.139 221.752 445.027 223.672C446.947 225.56 447.907 228.408 447.907 232.216V247H440.419V233.368C440.419 231.32 439.987 229.8 439.123 228.808C438.291 227.784 437.091 227.272 435.523 227.272C433.763 227.272 432.371 227.848 431.347 229C430.323 230.12 429.811 231.8 429.811 234.04V247H422.323V233.368C422.323 229.304 420.691 227.272 417.427 227.272C415.699 227.272 414.323 227.848 413.299 229C412.275 230.12 411.763 231.8 411.763 234.04V247H404.275V221.176H411.427V224.152C412.387 223.064 413.555 222.232 414.931 221.656C416.339 221.08 417.875 220.792 419.539 220.792C421.363 220.792 423.011 221.16 424.483 221.896C425.955 222.6 427.139 223.64 428.035 225.016C429.091 223.672 430.419 222.632 432.019 221.896C433.651 221.16 435.427 220.792 437.347 220.792ZM489.796 234.184C489.796 234.28 489.748 234.952 489.652 236.2H470.116C470.468 237.8 471.3 239.064 472.612 239.992C473.924 240.92 475.556 241.384 477.508 241.384C478.852 241.384 480.036 241.192 481.06 240.808C482.116 240.392 483.092 239.752 483.988 238.888L487.972 243.208C485.54 245.992 481.988 247.384 477.316 247.384C474.404 247.384 471.828 246.824 469.588 245.704C467.348 244.552 465.62 242.968 464.404 240.952C463.188 238.936 462.58 236.648 462.58 234.088C462.58 231.56 463.172 229.288 464.356 227.272C465.572 225.224 467.22 223.64 469.3 222.52C471.412 221.368 473.764 220.792 476.356 220.792C478.884 220.792 481.172 221.336 483.22 222.424C485.268 223.512 486.868 225.08 488.02 227.128C489.204 229.144 489.796 231.496 489.796 234.184ZM476.404 226.456C474.708 226.456 473.284 226.936 472.132 227.896C470.98 228.856 470.276 230.168 470.02 231.832H482.74C482.484 230.2 481.78 228.904 480.628 227.944C479.476 226.952 478.068 226.456 476.404 226.456ZM520.077 220.792C523.277 220.792 525.853 221.752 527.805 223.672C529.789 225.592 530.781 228.44 530.781 232.216V247H523.293V233.368C523.293 231.32 522.845 229.8 521.949 228.808C521.053 227.784 519.757 227.272 518.061 227.272C516.173 227.272 514.669 227.864 513.549 229.048C512.429 230.2 511.869 231.928 511.869 234.232V247H504.381V221.176H511.533V224.2C512.525 223.112 513.757 222.28 515.229 221.704C516.701 221.096 518.317 220.792 520.077 220.792ZM563.824 245.752C563.088 246.296 562.176 246.712 561.088 247C560.032 247.256 558.912 247.384 557.728 247.384C554.656 247.384 552.272 246.6 550.576 245.032C548.912 243.464 548.08 241.16 548.08 238.12V227.512H544.096V221.752H548.08V215.464H555.568V221.752H562V227.512H555.568V238.024C555.568 239.112 555.84 239.96 556.384 240.568C556.96 241.144 557.76 241.432 558.784 241.432C559.968 241.432 560.976 241.112 561.808 240.472L563.824 245.752ZM588.044 220.792C592.044 220.792 595.116 221.752 597.26 223.672C599.404 225.56 600.476 228.424 600.476 232.264V247H593.468V243.784C592.06 246.184 589.436 247.384 585.596 247.384C583.612 247.384 581.884 247.048 580.412 246.376C578.972 245.704 577.868 244.776 577.1 243.592C576.332 242.408 575.948 241.064 575.948 239.56C575.948 237.16 576.844 235.272 578.636 233.896C580.46 232.52 583.26 231.832 587.036 231.832H592.988C592.988 230.2 592.492 228.952 591.5 228.088C590.508 227.192 589.02 226.744 587.036 226.744C585.66 226.744 584.3 226.968 582.956 227.416C581.644 227.832 580.524 228.408 579.596 229.144L576.908 223.912C578.316 222.92 579.996 222.152 581.948 221.608C583.932 221.064 585.964 220.792 588.044 220.792ZM587.468 242.344C588.748 242.344 589.884 242.056 590.876 241.48C591.868 240.872 592.572 239.992 592.988 238.84V236.2H587.852C584.78 236.2 583.244 237.208 583.244 239.224C583.244 240.184 583.612 240.952 584.348 241.528C585.116 242.072 586.156 242.344 587.468 242.344ZM633.509 245.752C632.773 246.296 631.861 246.712 630.773 247C629.717 247.256 628.597 247.384 627.413 247.384C624.341 247.384 621.957 246.6 620.261 245.032C618.597 243.464 617.765 241.16 617.765 238.12V227.512H613.781V221.752H617.765V215.464H625.253V221.752H631.685V227.512H625.253V238.024C625.253 239.112 625.525 239.96 626.069 240.568C626.645 241.144 627.445 241.432 628.469 241.432C629.653 241.432 630.661 241.112 631.493 240.472L633.509 245.752ZM647.312 221.176H654.8V247H647.312V221.176ZM651.056 217.576C649.68 217.576 648.56 217.176 647.696 216.376C646.832 215.576 646.4 214.584 646.4 213.4C646.4 212.216 646.832 211.224 647.696 210.424C648.56 209.624 649.68 209.224 651.056 209.224C652.432 209.224 653.552 209.608 654.416 210.376C655.28 211.144 655.712 212.104 655.712 213.256C655.712 214.504 655.28 215.544 654.416 216.376C653.552 217.176 652.432 217.576 651.056 217.576ZM683.638 247.384C680.918 247.384 678.47 246.824 676.294 245.704C674.15 244.552 672.47 242.968 671.254 240.952C670.038 238.936 669.43 236.648 669.43 234.088C669.43 231.528 670.038 229.24 671.254 227.224C672.47 225.208 674.15 223.64 676.294 222.52C678.47 221.368 680.918 220.792 683.638 220.792C686.358 220.792 688.79 221.368 690.934 222.52C693.078 223.64 694.758 225.208 695.974 227.224C697.19 229.24 697.798 231.528 697.798 234.088C697.798 236.648 697.19 238.936 695.974 240.952C694.758 242.968 693.078 244.552 690.934 245.704C688.79 246.824 686.358 247.384 683.638 247.384ZM683.638 241.24C685.558 241.24 687.126 240.6 688.342 239.32C689.59 238.008 690.214 236.264 690.214 234.088C690.214 231.912 689.59 230.184 688.342 228.904C687.126 227.592 685.558 226.936 683.638 226.936C681.718 226.936 680.134 227.592 678.886 228.904C677.638 230.184 677.014 231.912 677.014 234.088C677.014 236.264 677.638 238.008 678.886 239.32C680.134 240.6 681.718 241.24 683.638 241.24ZM728.099 220.792C731.299 220.792 733.875 221.752 735.827 223.672C737.811 225.592 738.803 228.44 738.803 232.216V247H731.315V233.368C731.315 231.32 730.867 229.8 729.971 228.808C729.075 227.784 727.779 227.272 726.083 227.272C724.195 227.272 722.691 227.864 721.571 229.048C720.451 230.2 719.891 231.928 719.891 234.232V247H712.403V221.176H719.555V224.2C720.547 223.112 721.779 222.28 723.251 221.704C724.723 221.096 726.339 220.792 728.099 220.792Z" fill="white"/>
<rect x="75" width="650" height="150" fill="#86B9B0"/>
<path d="M285.958 88.576C283.302 88.576 280.726 88.224 278.23 87.52C275.766 86.784 273.782 85.84 272.278 84.688L274.918 78.832C276.358 79.888 278.07 80.736 280.054 81.376C282.038 82.016 284.022 82.336 286.006 82.336C288.214 82.336 289.846 82.016 290.902 81.376C291.958 80.704 292.486 79.824 292.486 78.736C292.486 77.936 292.166 77.28 291.526 76.768C290.918 76.224 290.118 75.792 289.126 75.472C288.166 75.152 286.854 74.8 285.19 74.416C282.63 73.808 280.534 73.2 278.902 72.592C277.27 71.984 275.862 71.008 274.678 69.664C273.526 68.32 272.95 66.528 272.95 64.288C272.95 62.336 273.478 60.576 274.534 59.008C275.59 57.408 277.174 56.144 279.286 55.216C281.43 54.288 284.038 53.824 287.11 53.824C289.254 53.824 291.35 54.08 293.398 54.592C295.446 55.104 297.238 55.84 298.774 56.8L296.374 62.704C293.27 60.944 290.166 60.064 287.062 60.064C284.886 60.064 283.27 60.416 282.214 61.12C281.19 61.824 280.678 62.752 280.678 63.904C280.678 65.056 281.27 65.92 282.454 66.496C283.67 67.04 285.51 67.584 287.974 68.128C290.534 68.736 292.63 69.344 294.262 69.952C295.894 70.56 297.286 71.52 298.438 72.832C299.622 74.144 300.214 75.92 300.214 78.16C300.214 80.08 299.67 81.84 298.582 83.44C297.526 85.008 295.926 86.256 293.782 87.184C291.638 88.112 289.03 88.576 285.958 88.576ZM340.616 62.176V88H333.512V84.928C332.52 86.048 331.336 86.912 329.96 87.52C328.584 88.096 327.096 88.384 325.496 88.384C322.104 88.384 319.416 87.408 317.432 85.456C315.448 83.504 314.456 80.608 314.456 76.768V62.176H321.944V75.664C321.944 79.824 323.688 81.904 327.176 81.904C328.968 81.904 330.408 81.328 331.496 80.176C332.584 78.992 333.128 77.248 333.128 74.944V62.176H340.616ZM372.417 61.792C374.817 61.792 376.993 62.352 378.945 63.472C380.929 64.56 382.481 66.112 383.601 68.128C384.721 70.112 385.281 72.432 385.281 75.088C385.281 77.744 384.721 80.08 383.601 82.096C382.481 84.08 380.929 85.632 378.945 86.752C376.993 87.84 374.817 88.384 372.417 88.384C369.121 88.384 366.529 87.344 364.641 85.264V97.312H357.153V62.176H364.305V65.152C366.161 62.912 368.865 61.792 372.417 61.792ZM371.121 82.24C373.041 82.24 374.609 81.6 375.825 80.32C377.073 79.008 377.697 77.264 377.697 75.088C377.697 72.912 377.073 71.184 375.825 69.904C374.609 68.592 373.041 67.936 371.121 67.936C369.201 67.936 367.617 68.592 366.369 69.904C365.153 71.184 364.545 72.912 364.545 75.088C364.545 77.264 365.153 79.008 366.369 80.32C367.617 81.6 369.201 82.24 371.121 82.24ZM415.158 61.792C417.558 61.792 419.734 62.352 421.686 63.472C423.67 64.56 425.222 66.112 426.342 68.128C427.462 70.112 428.022 72.432 428.022 75.088C428.022 77.744 427.462 80.08 426.342 82.096C425.222 84.08 423.67 85.632 421.686 86.752C419.734 87.84 417.558 88.384 415.158 88.384C411.862 88.384 409.27 87.344 407.382 85.264V97.312H399.894V62.176H407.046V65.152C408.902 62.912 411.606 61.792 415.158 61.792ZM413.862 82.24C415.782 82.24 417.35 81.6 418.566 80.32C419.814 79.008 420.438 77.264 420.438 75.088C420.438 72.912 419.814 71.184 418.566 69.904C417.35 68.592 415.782 67.936 413.862 67.936C411.942 67.936 410.358 68.592 409.109 69.904C407.894 71.184 407.286 72.912 407.286 75.088C407.286 77.264 407.894 79.008 409.109 80.32C410.358 81.6 411.942 82.24 413.862 82.24ZM454.922 88.384C452.202 88.384 449.754 87.824 447.578 86.704C445.434 85.552 443.754 83.968 442.538 81.952C441.322 79.936 440.714 77.648 440.714 75.088C440.714 72.528 441.322 70.24 442.538 68.224C443.754 66.208 445.434 64.64 447.578 63.52C449.754 62.368 452.202 61.792 454.922 61.792C457.642 61.792 460.074 62.368 462.218 63.52C464.362 64.64 466.042 66.208 467.258 68.224C468.474 70.24 469.082 72.528 469.082 75.088C469.082 77.648 468.474 79.936 467.258 81.952C466.042 83.968 464.362 85.552 462.218 86.704C460.074 87.824 457.642 88.384 454.922 88.384ZM454.922 82.24C456.842 82.24 458.41 81.6 459.626 80.32C460.874 79.008 461.498 77.264 461.498 75.088C461.498 72.912 460.874 71.184 459.626 69.904C458.41 68.592 456.842 67.936 454.922 67.936C453.002 67.936 451.418 68.592 450.17 69.904C448.922 71.184 448.298 72.912 448.298 75.088C448.298 77.264 448.922 79.008 450.17 80.32C451.418 81.6 453.002 82.24 454.922 82.24ZM490.839 65.584C491.735 64.336 492.935 63.392 494.439 62.752C495.975 62.112 497.735 61.792 499.719 61.792V68.704C498.887 68.64 498.327 68.608 498.039 68.608C495.895 68.608 494.215 69.216 492.999 70.432C491.783 71.616 491.175 73.408 491.175 75.808V88H483.687V62.176H490.839V65.584ZM531.318 86.752C530.582 87.296 529.67 87.712 528.582 88C527.526 88.256 526.406 88.384 525.222 88.384C522.15 88.384 519.766 87.6 518.07 86.032C516.406 84.464 515.574 82.16 515.574 79.12V68.512H511.59V62.752H515.574V56.464H523.062V62.752H529.494V68.512H523.062V79.024C523.062 80.112 523.334 80.96 523.878 81.568C524.454 82.144 525.254 82.432 526.278 82.432C527.462 82.432 528.47 82.112 529.302 81.472L531.318 86.752Z" fill="white"/>
</svg>
