<svg width="80" height="100" viewBox="0 0 80 100" fill="none" xmlns="http://www.w3.org/2000/svg">
<g clip-path="url(#clip0)">
<rect width="80" height="100" fill="white"/>
<rect y="0.111084" width="80" height="100" fill="#46D2CE"/>
<path d="M8.85863 17.8H39.3866C46.6826 17.8 53.1146 19.208 58.6826 22.024C64.3146 24.776 68.6666 28.68 71.7386 33.736C74.8746 38.792 76.4426 44.68 76.4426 51.4C76.4426 58.12 74.8746 64.008 71.7386 69.064C68.6666 74.12 64.3146 78.056 58.6826 80.872C53.1146 83.624 46.6826 85 39.3866 85H8.85863V17.8ZM38.6186 72.232C45.3386 72.232 50.6826 70.376 54.6506 66.664C58.6826 62.888 60.6986 57.8 60.6986 51.4C60.6986 45 58.6826 39.944 54.6506 36.232C50.6826 32.456 45.3386 30.568 38.6186 30.568H24.4106V72.232H38.6186Z" fill="white"/>
</g>
<defs>
<clipPath id="clip0">
<rect width="80" height="100" fill="white"/>
</clipPath>
</defs>
</svg>
