<svg width="48" height="48" viewBox="0 0 48 48" fill="none" xmlns="http://www.w3.org/2000/svg">
<rect width="48" height="48" fill="#D4E4F7"/>
<circle cx="24" cy="24" r="20" fill="#236AB9"/>
<line x1="1" y1="-1" x2="5.89186" y2="-1" transform="matrix(0.829236 0.558899 -0.489846 0.871809 18.5314 10.3333)" stroke="#E95420" stroke-width="2" stroke-linecap="round"/>
<line x1="1" y1="-1" x2="5.73834" y2="-1" transform="matrix(0.00023661 1 -1 0.000283825 23.8068 13.2222)" stroke="#E95420" stroke-width="2" stroke-linecap="round"/>
<line x1="1" y1="-1" x2="5.53194" y2="-1" transform="matrix(0.807626 -0.589695 0.519947 0.854199 24.2464 14.1852)" stroke="#E95420" stroke-width="2" stroke-linecap="round"/>
<path d="M24.2464 7.18315L28.9571 10.1619V16.2825L24.2464 19.2613L19.5356 16.2825V10.1619L24.2464 7.18315Z" stroke="#E95420" stroke-width="2" stroke-linecap="round"/>
<line x1="1" y1="-1" x2="5.89186" y2="-1" transform="matrix(0.829236 0.558899 -0.489846 0.871809 18.5314 30.8889)" stroke="#E95420" stroke-width="2" stroke-linecap="round"/>
<line x1="1" y1="-1" x2="5.73834" y2="-1" transform="matrix(0.00023661 1 -1 0.000283825 23.8068 33.7778)" stroke="#E95420" stroke-width="2" stroke-linecap="round"/>
<line x1="1" y1="-1" x2="5.53194" y2="-1" transform="matrix(0.807626 -0.589695 0.519947 0.854199 24.2464 34.7407)" stroke="#E95420" stroke-width="2" stroke-linecap="round"/>
<path d="M24.2464 27.7387L28.9571 30.7175V36.8381L24.2464 39.8168L19.5356 36.8381V30.7175L24.2464 27.7387Z" stroke="#E95420" stroke-width="2" stroke-linecap="round"/>
<line x1="1" y1="-1" x2="5.89186" y2="-1" transform="matrix(0.829236 0.558899 -0.489846 0.871809 7.87923 20.3333)" stroke="#E95420" stroke-width="2" stroke-linecap="round"/>
<line x1="1" y1="-1" x2="5.73834" y2="-1" transform="matrix(0.00023661 1 -1 0.000283825 13.1546 23.2222)" stroke="#E95420" stroke-width="2" stroke-linecap="round"/>
<line x1="1" y1="-1" x2="5.53194" y2="-1" transform="matrix(0.807626 -0.589695 0.519947 0.854199 13.5942 24.1852)" stroke="#E95420" stroke-width="2" stroke-linecap="round"/>
<path d="M13.5942 17.1832L18.305 20.1619V26.2825L13.5942 29.2613L8.88346 26.2825V20.1619L13.5942 17.1832Z" stroke="#E95420" stroke-width="2" stroke-linecap="round"/>
<line x1="1" y1="-1" x2="5.89186" y2="-1" transform="matrix(0.829236 0.558899 -0.489846 0.871809 29.6908 20.3333)" stroke="#E95420" stroke-width="2" stroke-linecap="round"/>
<line x1="1" y1="-1" x2="5.73834" y2="-1" transform="matrix(0.00023661 1 -1 0.000283825 34.9662 23.2222)" stroke="#E95420" stroke-width="2" stroke-linecap="round"/>
<line x1="1" y1="-1" x2="5.53194" y2="-1" transform="matrix(0.807626 -0.589695 0.519947 0.854199 35.4058 24.1852)" stroke="#E95420" stroke-width="2" stroke-linecap="round"/>
<path d="M35.4058 17.1832L40.1166 20.1619V26.2825L35.4058 29.2613L30.6951 26.2825V20.1619L35.4058 17.1832Z" stroke="#E95420" stroke-width="2" stroke-linecap="round"/>
<path d="M27.7971 29.2119L32.8331 24.337" stroke="#E95420" stroke-width="2" stroke-linecap="round"/>
<path d="M16.2967 18.5744L21.9389 14.5745" stroke="#E95420" stroke-width="2" stroke-linecap="round"/>
<path d="M26.7826 14.3333L32.343 18.4648" stroke="#E95420" stroke-width="2" stroke-linecap="round"/>
<path d="M16.1304 24.3333L21.6908 28.4648" stroke="#E95420" stroke-width="2" stroke-linecap="round"/>
</svg>
