<svg width="48" height="48" viewBox="0 0 48 48" fill="none" xmlns="http://www.w3.org/2000/svg">
<g clip-path="url(#clip0)">
<rect width="48" height="48" fill="#D4E4F7"/>
<circle cx="24" cy="24" r="20" fill="#236AB9"/>
<path d="M32.88 23.44C34.48 23.9467 35.7333 24.8 36.64 26C37.5467 27.1733 38 28.6267 38 30.36C38 32.8133 37.04 34.7067 35.12 36.04C33.2267 37.3467 30.4533 38 26.8 38H12.32V10H26C29.4133 10 32.0267 10.6533 33.84 11.96C35.68 13.2667 36.6 15.04 36.6 17.28C36.6 18.64 36.2667 19.8533 35.6 20.92C34.96 21.9867 34.0533 22.8267 32.88 23.44ZM18.76 14.88V21.48H25.2C26.8 21.48 28.0133 21.2 28.84 20.64C29.6667 20.08 30.08 19.2533 30.08 18.16C30.08 17.0667 29.6667 16.2533 28.84 15.72C28.0133 15.16 26.8 14.88 25.2 14.88H18.76ZM26.32 33.12C28.0267 33.12 29.3067 32.84 30.16 32.28C31.04 31.72 31.48 30.8533 31.48 29.68C31.48 27.36 29.76 26.2 26.32 26.2H18.76V33.12H26.32Z" fill="#F37312"/>
</g>
<defs>
<clipPath id="clip0">
<rect width="48" height="48" fill="white"/>
</clipPath>
</defs>
</svg>
