<svg width="80" height="100" viewBox="0 0 80 100" fill="none" xmlns="http://www.w3.org/2000/svg">
<g clip-path="url(#clip0)">
<rect width="80" height="100" fill="white"/>
<rect y="-0.140869" width="80" height="100" fill="#5770A8"/>
<path d="M39.4386 85.152C34.1266 85.152 28.9746 84.448 23.9826 83.04C19.0546 81.568 15.0866 79.68 12.0786 77.376L17.3586 65.664C20.2386 67.776 23.6626 69.472 27.6306 70.752C31.5986 72.032 35.5666 72.672 39.5346 72.672C43.9506 72.672 47.2146 72.032 49.3266 70.752C51.4386 69.408 52.4946 67.648 52.4946 65.472C52.4946 63.872 51.8546 62.56 50.5746 61.536C49.3586 60.448 47.7586 59.584 45.7746 58.944C43.8546 58.304 41.2306 57.6 37.9026 56.832C32.7826 55.616 28.5906 54.4 25.3266 53.184C22.0626 51.968 19.2466 50.016 16.8786 47.328C14.5746 44.64 13.4226 41.056 13.4226 36.576C13.4226 32.672 14.4786 29.152 16.5906 26.016C18.7026 22.816 21.8706 20.288 26.0946 18.432C30.3826 16.576 35.5986 15.648 41.7426 15.648C46.0306 15.648 50.2226 16.16 54.3186 17.184C58.4146 18.208 61.9986 19.68 65.0706 21.6L60.2706 33.408C54.0626 29.888 47.8546 28.128 41.6466 28.128C37.2946 28.128 34.0626 28.832 31.9506 30.24C29.9026 31.648 28.8786 33.504 28.8786 35.808C28.8786 38.112 30.0626 39.84 32.4306 40.992C34.8626 42.08 38.5426 43.168 43.4706 44.256C48.5906 45.472 52.7826 46.688 56.0466 47.904C59.3106 49.12 62.0946 51.04 64.3986 53.664C66.7666 56.288 67.9506 59.84 67.9506 64.32C67.9506 68.16 66.8626 71.68 64.6866 74.88C62.5746 78.016 59.3746 80.512 55.0866 82.368C50.7986 84.224 45.5826 85.152 39.4386 85.152Z" fill="white"/>
</g>
<defs>
<clipPath id="clip0">
<rect width="80" height="100" fill="white"/>
</clipPath>
</defs>
</svg>
